<svg xmlns="http://www.w3.org/2000/svg" width="59" height="57"> <path fill="#FEFEFE" fill-rule="evenodd" d="M8.0264 51.248c.765 0 1.528-.009 2.292.005.205.004.263-.04.261-.255-.011-1.526-.006-3.053-.005-4.58 0-.085-.038-.185-.113-.154-.181.075-.318-.063-.481-.062-1.419.005-2.838.005-4.256 0-.147-.001-.199.024-.198.188.008 1.552.008 3.106 0 4.659-.001.169.05.204.209.202.764-.008 1.527-.003 2.291-.003m.051-10.085c2.428 0 4.857.002 7.286-.006.21 0 .258.049.258.258-.007 4.874-.007 9.748 0 14.623 0 .209-.048.258-.258.258-4.874-.007-9.748-.007-14.623 0-.209 0-.258-.049-.257-.258.007-4.875.007-9.749 0-14.623-.001-.209.048-.258.258-.258 2.445.008 4.89.006 7.336.006M5.5312 8.3608c0 .782.005 1.563-.005 2.344-.002.165.042.207.206.206 1.547-.006 3.093-.006 4.639 0 .165.001.207-.041.206-.205-.007-1.547-.007-3.093 0-4.639.001-.164-.041-.206-.206-.206-1.546.007-3.092.007-4.639 0-.164 0-.208.042-.206.206.01.765.005 1.529.005 2.294m2.495 7.589c-2.429 0-4.857-.003-7.286.005-.21.001-.258-.049-.257-.258.007-4.874.007-9.748 0-14.622-.001-.21.049-.258.258-.258 4.874.007 9.748.007 14.622 0 .21 0 .258.049.258.258-.007 4.874-.007 9.748 0 14.623 0 .209-.049.258-.258.257-2.445-.008-4.892-.005-7.337-.005m.0002 15.1278c.782 0 1.563-.005 2.345.004.165.002.207-.042.206-.206-.007-1.547-.007-3.092 0-4.639.001-.164-.041-.206-.206-.205-1.546.006-3.092.006-4.639 0-.164-.001-.206.041-.205.205.006 1.547.006 3.092 0 4.639-.001.164.041.208.205.206.765-.009 1.529-.004 2.294-.004m0 5.042c-2.429 0-4.857-.002-7.286.006-.209 0-.258-.049-.257-.258.007-4.874.007-9.748 0-14.623-.001-.209.048-.258.258-.257 4.874.007 9.748.007 14.622 0 .21-.001.258.048.258.257-.007 4.875-.007 9.749 0 14.623 0 .21-.049.258-.258.258-2.445-.008-4.891-.006-7.337-.006M39.542 10.9072c-6.202 0-12.404-.001-18.606.005-.229.001-.285-.055-.284-.283.012-1.513.01-3.025.001-4.538-.001-.19.047-.231.234-.231 12.454.005 24.909.005 37.363 0 .189 0 .233.044.232.232-.008 1.521-.009 3.043.001 4.564.001.21-.05.256-.258.256-6.228-.006-12.455-.005-18.683-.005m.0264 20.1704c-6.211 0-12.421-.001-18.632.005-.226 0-.286-.053-.284-.282.012-1.513.01-3.026.001-4.538-.001-.189.044-.232.232-.232 12.454.005 24.91.005 37.365 0 .186 0 .233.042.232.231-.009 1.521-.01 3.043 0 4.564.002.209-.048.257-.258.257-6.218-.006-12.437-.005-18.656-.005M39.542 51.248c-6.202 0-12.404-.002-18.606.005-.228 0-.285-.055-.284-.283.012-1.513.01-3.026.001-4.538-.001-.19.046-.231.234-.231 12.454.005 24.909.005 37.363 0 .188 0 .233.043.232.232-.008 1.52-.009 3.042.001 4.563.001.211-.05.257-.258.257-6.228-.007-12.455-.005-18.683-.005"/></svg>