<svg xmlns="http://www.w3.org/2000/svg" width="48" height="49"> <g fill="#FFF" fill-rule="evenodd"> <path d="M35.75 22.52V3.72c0-.2-.04-.25-.24-.25H4.7c-.18 0-.24.03-.24.23V45c0 .2.06.25.24.25h30.8c.2 0 .25-.05.25-.25v-4.66c0-.1 0-.2.06-.3l3.4-5.94c0-.03 0-.08.1-.1.1.07 0 .13 0 .2v11.13c0 .9-.2 1.74-.9 2.42-.6.62-1.3.9-2.2.97H4.4c-.8 0-1.6-.18-2.2-.7-.8-.63-1.18-1.5-1.2-2.5V3.72c0-.75.1-1.48.5-2.13C2.1.6 3 0 4.15 0H35.7c1 0 1.87.28 2.56 1.02.66.7.95 1.57.95 2.53v12.6c0 .14 0 .27-.1.4l-3.2 5.8-.1.16"/> <path d="M29.78 41.74v-4.06c0-.1.06-.2.1-.27l8.86-15.2 3.4-5.8c.08-.1.13-.1.3-.1l3.14 1.8c.12.1.15.2.07.3l-12.2 21.1c-.05.1-.1.2-.17.2l-3.4 2.1-.1.1M20.1 17.4c-4.15 0-8.3 0-12.44.02-.2 0-.25-.04-.25-.24.1-.68.1-1.36 0-2.03 0-.2.1-.22.3-.22h24.9c.2 0 .2.05.2.2v2.08c0 .2 0 .3-.2.3H20.1m-.03 11.4H7.65c-.2 0-.24 0-.23-.2v-2c0-.2.04-.2.24-.2h24.9c.17 0 .2.1.2.3v2.08c0 .18-.03.23-.2.23h-12.5M17.1 11.5H7.64c-.2 0-.23-.06-.22-.24V9.2c0-.18.03-.24.23-.24h18.9c.2 0 .25.05.25.24v2.03c0 .18-.03.23-.22.23H17.1m0 11.42H7.64c-.2 0-.23-.05-.22-.22V20.6c0-.16.03-.2.2-.2h18.95c.2 0 .24.05.24.23v2.05c0 .16 0 .2-.2.2h-9.5m.1 8.95h9.5c.2 0 .3.03.3.22v2.02c0 .2 0 .25-.2.24h-19c-.2 0-.2 0-.2-.2v-2c0-.2 0-.2.25-.2h9.44m-5 8.3c-.03 1.4-1.1 2.4-2.44 2.4-1.4 0-2.43-1.1-2.4-2.4 0-1.3 1.1-2.4 2.45-2.3 1.3.04 2.4 1.14 2.37 2.46m7.7 0c0 1.34-1.07 2.4-2.4 2.4-1.34 0-2.4-1.1-2.4-2.4s1.06-2.4 2.4-2.4c1.33 0 2.4 1.07 2.4 2.4M48 14.6l-.05.1c-.4.68-.8 1.37-1.18 2.06-.07.12-.12.12-.24.05l-3.2-1.8c-.1 0-.13-.1-.06-.2l1.2-2c.05-.1.1-.1.2 0l3.23 1.9c.05.05.1.06.1.1"/> </g></svg>