<svg xmlns="http://www.w3.org/2000/svg" width="66" height="65"><g fill="#FFF" fill-rule="evenodd"><path d="M47.935.748c.41.09.832.15 1.234.27 2.46.744 4.23 2.236 5.07 4.728.34 1.028.31 2.095.22 3.147-.08 1.01-1.05 1.718-2.12 1.66-.99-.05-1.8-.886-1.84-1.874-.01-.27-.005-.53-.006-.8 0-1.6-.867-2.71-2.425-3.1-.334-.09-.67-.13-1.015-.13H7.265c-1.605 0-2.61.98-2.7 2.622-.006.132-.005.265-.005.397v25.26c0 .255.02.51.04.76.05.517.286.936.658 1.296.69.667.82 1.522.38 2.35-.4.76-1.34 1.22-2.17 1.065-.268-.05-.49-.184-.7-.354-1.11-.906-1.787-2.07-2.05-3.48-.03-.154 0-.327-.13-.454V6.576c.115-.144.092-.325.13-.49.53-2.417 1.9-4.114 4.244-4.984.45-.166.934-.2 1.39-.35h41.58z"/><path d="M27.105 58.118c.073-.008.154-.105.25-.172 3.137-2.206 6.275-4.41 9.403-6.63.508-.36 1.035-.53 1.66-.53 6.532.012 13.065.008 19.598.01 1.11 0 2.037-.42 2.776-1.243.44-.49.7-1.067.7-1.738.004-4.524.002-9.048.002-13.572-.002-3.95-.005-7.9.002-11.852.002-.81-.276-1.48-.87-2.03-.76-.7-1.668-.96-2.694-.96-13.187.01-26.374.01-39.56.01-.166 0-.33 0-.495.01-.982.08-1.668.57-2.058 1.478-.21.474-.26.977-.26 1.488v25.59c.06 1.437.88 2.918 2.93 2.854 2.216-.07 4.436-.023 6.654-.013 1.182.007 2.016.86 2.002 2.04-.01.76-.05 1.52-.057 2.283-.01 1 0 1.993 0 2.992zm11.073-42.655c6.654 0 13.306-.033 19.96.015 2.976.02 5.257 1.367 6.696 4.02.475.878.648 1.838.648 2.836-.004 8.375-.008 16.75.002 25.123.003 3.064-1.485 5.167-4.142 6.527-1.06.54-2.2.735-3.39.734-6.255-.008-12.51-.002-18.767-.01-.28 0-.498.076-.726.236-4.1 2.894-8.19 5.783-12.29 8.67-.97.678-2.12.54-2.82-.324-.35-.435-.45-.94-.44-1.486.067-2.25.12-4.5.192-6.75.01-.267-.04-.35-.33-.348-1.555.016-3.112.02-4.667.004-3.244-.032-5.846-2.25-6.41-5.445-.083-.48-.13-.96-.13-1.446 0-8.54-.016-17.08.01-25.62.005-2.67 1.15-4.74 3.535-6.03.96-.52 2.008-.71 3.09-.71h19.96z"/></g></svg>