<svg xmlns="http://www.w3.org/2000/svg" width="58" height="45"> <path fill="#FFF" d="M54.416 8.29H3.584C1.613 8.29 0 6.677 0 4.706V3.584C0 1.613 1.613 0 3.584 0h50.832C56.387 0 58 1.613 58 3.584v1.122c0 1.971-1.613 3.584-3.584 3.584m0 18.354H3.584C1.613 26.644 0 25.031 0 23.06v-1.121c0-1.971 1.613-3.584 3.584-3.584h50.832c1.971 0 3.584 1.613 3.584 3.584v1.121c0 1.971-1.613 3.584-3.584 3.584m0 18.356H3.584C1.613 45 0 43.387 0 41.416v-1.122c0-1.971 1.613-3.584 3.584-3.584h50.832c1.971 0 3.584 1.613 3.584 3.584v1.122C58 43.387 56.387 45 54.416 45"/> </svg>