<svg xmlns="http://www.w3.org/2000/svg" width="96" height="72"> <g fill="#FFF" fill-rule="evenodd"> <path d="M68.5918 43.797c-1.378-7.276-9.324-19.144-21.263-20.062-12.963-1.024-17.766 5.969-17.766 5.969s-4.698-21.757-11.267-21.757C7.4518 7.947.1408 42.384.1408 42.384v.071c0 .176.177.388.388.388.177 0 .319-.141.389-.317 2.438-9.573 9.007-30.871 17.448-30.871 6.57 0 11.445 22.323 11.445 22.323s4.909-7.17 18.083-6.111c9.854.778 17.024 9.007 20.168 16.071.036.106.141.177.248.177.177 0 .282-.106.282-.283v-.035z"/> <path d="M68.5918 35.85c-1.378-7.241-9.324-19.108-21.263-20.062-12.963-1.024-17.766 5.969-17.766 5.969S24.8648 0 18.2958 0C7.4518 0 .1408 34.437.1408 34.437v.071c0 .212.177.388.388.388.177 0 .319-.141.389-.282 2.438-9.607 9.007-30.906 17.448-30.906 6.57 0 11.445 22.358 11.445 22.358s4.909-7.205 18.083-6.145c9.854.777 17.024 9.006 20.168 16.106.036.105.141.176.248.176.177 0 .282-.141.282-.282v-.071zm24.406 8.689h2.862v20.238c0 3.744-1.484 6.534-5.511 6.534-.353 0-.601-.035-.883-.07l-.529-2.684h.741c3.038 0 3.32-1.52 3.32-4.627V44.539zm-5.581 16.071c-1.518-2.508-2.613-4.38-4.45-5.581 2.155-.848 3.355-2.578 3.355-4.874 0-3.497-2.507-5.616-6.569-5.616h-5.051v20.026h2.862v-8.689h1.2c1.483 0 2.684.46 5.334 4.557l2.613 4.132h3.461c-1.377-1.907-1.871-2.578-2.755-3.955zm-7.981-7.347h-1.872v-6.252h1.872c2.79 0 3.885 1.131 3.92 3.003.035 1.695-.848 3.249-3.92 3.249z"/> <path d="M42.8076 54.146c1.943-1.06 2.861-2.437 2.861-4.45 0-2.296-1.271-5.157-6.64-5.157h-4.167v20.026h5.862c4.063 0 6.711-2.048 6.711-5.333 0-2.649-1.589-4.415-4.627-5.086zm-6.393-8.335v8.017h2.12c4.061 0 5.474-1.625 5.474-4.026 0-3.038-2.401-3.991-5.51-3.991h-2.084zm4.133 17.448c4.132 0 5.227-2.226 5.227-4.062 0-1.943-1.06-4.097-5.898-4.097h-3.462v8.159h4.133zm28.079-11.338c.212.883.283 1.766.283 2.614 0 4.662-2.719 10.03-10.631 10.03h-7.277V44.539h6.994c2.967 0 5.192.671 6.817 1.766-3.815-5.263-9.643-9.925-16.919-10.526-13.174-1.059-18.083 6.146-18.083 6.146s-4.875-22.358-11.444-22.358c-8.442 0-15.011 21.334-17.449 30.906-.07.176-.212.318-.388.318-.212 0-.389-.177-.389-.424v-.071s7.312-34.437 18.155-34.437c6.57 0 11.267 21.757 11.267 21.757s4.804-6.993 17.766-5.934c11.939.919 19.921 12.963 21.298 20.239zm-10.455 11.338h-5.615V45.811h5.545c5.404 0 9.148 3.602 9.148 8.724 0 5.651-4.274 8.724-9.078 8.724zm-37.014-13.74c0-2.154 1.836-3.814 4.238-3.814 1.377 0 2.436.353 4.485 1.518v-1.695c-1.553-.848-3.073-1.272-4.627-1.272-3.178 0-5.757 2.367-5.757 5.334 0 6.605 9.537 4.097 9.537 9.819 0 2.225-1.837 3.956-4.239 3.956-1.554 0-2.791-.53-5.05-2.119v1.801c1.765 1.165 3.496 1.766 5.156 1.766 3.25 0 5.793-2.402 5.793-5.475 0-7.028-9.536-4.486-9.536-9.819z"/> </g> </svg>