<svg xmlns="http://www.w3.org/2000/svg" width="480" height="192" xmlns:xlink="http://www.w3.org/1999/xlink"> <defs> <path id="a" d="M0 0h750v1334H0z"/> <path id="c" d="M0 0h750v1334H0z"/> <path id="e" d="M0 0h750v1334H0z"/> <path id="g" d="M0 0h750v1334H0z"/> <path id="i" d="M0 0h750v1334H0z"/> <path id="k" d="M0 0h750v1334H0z"/> <path id="m" d="M0 0h750v1334H0z"/> <path id="o" d="M0 0h750v1334H0z"/> <path id="q" d="M0 0h750v1334H0z"/> <path id="s" d="M0 0h750v1334H0z"/> <path id="u" d="M0 0h750v1334H0z"/> <path id="w" d="M0 0h750v1334H0z"/> <path id="y" d="M0 0h750v1334H0z"/> <path id="A" d="M0 0h750v1334H0z"/> <path id="C" d="M0 0h750v1334H0z"/> <path id="E" d="M0 0h750v1334H0z"/> <path id="G" d="M0 0h750v1334H0z"/> <path id="I" d="M0 0h750v1334H0z"/> <path id="K" d="M0 0h750v1334H0z"/> <path id="M" d="M0 0h750v1334H0z"/> <path id="O" d="M0 0h750v1334H0z"/> <path id="Q" d="M0 0h750v1334H0z"/> <path id="S" d="M0 0h750v1334H0z"/> <path id="U" d="M0 0h750v1334H0z"/> <path id="W" d="M0 0h750v1334H0z"/> <path id="Y" d="M0 0h750v1334H0z"/> <path id="aa" d="M0 0h750v1334H0z"/> <path id="ac" d="M0 0h750v1334H0z"/> <path id="ae" d="M0 0h750v1334H0z"/> <path id="ag" d="M0 0h750v1334H0z"/> <path id="ai" d="M0 0h750v1334H0z"/> <path id="ak" d="M0 0h750v1334H0z"/> <path id="am" d="M0 0h750v1334H0z"/> <path id="ao" d="M0 0h750v1334H0z"/> <path id="aq" d="M0 0h750v1334H0z"/> <path id="as" d="M0 0h750v1334H0z"/> <path id="au" d="M0 0h750v1334H0z"/> <path id="aw" d="M0 0h750v1334H0z"/> <path id="ay" d="M0 0h750v1334H0z"/> <path id="aA" d="M0 0h750v1334H0z"/> <path id="aC" d="M0 0h750v1334H0z"/> <path id="aE" d="M0 0h750v1334H0z"/> <path id="aG" d="M0 0h750v1334H0z"/> <path id="aI" d="M0 0h750v1334H0z"/> <path id="aK" d="M0 0h750v1334H0z"/> <path id="aM" d="M0 0h750v1334H0z"/> <path id="aO" d="M0 0h750v1334H0z"/> <path id="aQ" d="M0 0h750v1334H0z"/> <path id="aS" d="M0 0h750v1334H0z"/> <path id="aU" d="M0 0h750v1334H0z"/> <path id="aW" d="M0 0h750v1334H0z"/> <path id="aY" d="M0 0h750v1334H0z"/> <path id="ba" d="M0 0h750v1334H0z"/> <path id="bc" d="M0 0h750v1334H0z"/> <path id="be" d="M0 0h750v1334H0z"/> <path id="bg" d="M0 0h750v1334H0z"/> </defs> <g fill="none" fill-rule="evenodd"> <g transform="translate(-135 -169)"> <mask id="b" fill="#fff"> <use xlink:href="#a"/> </mask> <path fill="#004761" d="M318.046 286.92c-3.684-19.458-24.935-51.193-56.86-53.65-34.663-2.738-47.508 15.963-47.508 15.963s-12.562-58.18-30.13-58.18C154.55 191.053 135 283.14 135 283.14v.19c0 .472.472 1.04 1.04 1.04.472 0 .85-.38 1.038-.85 6.518-25.598 24.085-82.55 46.66-82.55 17.567 0 30.6 59.692 30.6 59.692s13.13-19.174 48.36-16.34c26.352 2.078 45.525 24.085 53.93 42.975.096.284.38.473.663.473.48 0 .76-.284.76-.756v-.095z" mask="url(#b)"/> </g> <g transform="translate(-135 -169)"> <mask id="d" fill="#fff"> <use xlink:href="#c"/> </mask> <path fill="#DA4513" d="M347.043 312.232h-5.006v-16.717h5.006c7.46 0 10.39 3.022 10.484 8.028.094 4.534-2.267 8.69-10.484 8.69zm21.345 19.646c-4.06-6.706-6.99-11.71-11.9-14.923 5.76-2.266 8.973-6.895 8.973-13.034 0-9.35-6.7-15.01-17.56-15.01h-13.51v53.56h7.65v-23.24h3.21c3.97 0 7.18 1.23 14.26 12.19l6.99 11.05h9.26c-3.68-5.1-5-6.89-7.36-10.58zm14.924-42.975h7.65v54.12c0 10.012-3.967 17.474-14.734 17.474-.944 0-1.605-.095-2.362-.19l-1.416-7.177h1.984c8.122 0 8.877-4.062 8.877-12.374v-51.853h.01zm-65.266-23.235c-3.684-19.362-24.935-51.098-56.86-53.647-34.663-2.74-47.508 15.97-47.508 15.97s-12.562-58.18-30.13-58.18C154.55 169.8 135 261.89 135 261.89v.19c0 .566.472 1.038 1.04 1.038.472 0 .85-.378 1.038-.756 6.518-25.69 24.085-82.645 46.66-82.645 17.567 0 30.6 59.787 30.6 59.787s13.13-19.268 48.36-16.434c26.352 2.078 45.525 24.085 53.93 43.07.096.282.38.472.663.472.48 0 .76-.378.76-.756v-.188z" mask="url(#d)"/> </g> <g transform="translate(-135 -169)"> <mask id="f" fill="#fff"> <use xlink:href="#e"/> </mask> <path fill="#004761" d="M191.2 302.22c0-5.76 4.91-10.2 11.333-10.2 3.683 0 6.517.944 11.995 4.06v-4.532c-4.156-2.267-8.217-3.4-12.373-3.4-8.5 0-15.396 6.327-15.396 14.26 0 17.664 25.5 10.957 25.5 26.26 0 5.95-4.91 10.577-11.34 10.577-4.16 0-7.46-1.417-13.51-5.667v4.817c4.72 3.116 9.35 4.722 13.79 4.722 8.69 0 15.49-6.422 15.49-14.64 0-18.794-25.5-11.995-25.5-26.257zm98.983 36.742h-15.018v-46.66h14.83c14.45 0 24.462 9.635 24.462 23.33 0 15.113-11.43 23.33-24.274 23.33zm27.957-30.318c.567 2.36.756 4.722.756 6.99 0 12.467-7.273 26.823-28.43 26.823H271.01v-53.553h18.7c7.934 0 13.885 1.794 18.23 4.723-10.2-14.074-25.785-26.54-45.242-28.147-35.23-2.834-48.36 16.435-48.36 16.435s-13.033-59.788-30.6-59.788c-22.575 0-40.142 57.048-46.66 82.645-.19.472-.566.85-1.04.85-.566 0-1.038-.473-1.038-1.133v-.19s19.55-92.09 48.548-92.09c17.568 0 30.13 58.18 30.13 58.18s12.845-18.7 47.508-15.87c31.925 2.45 53.27 34.66 56.954 54.12zm-75.088 30.318c11.05 0 13.98-5.95 13.98-10.862 0-5.194-2.835-10.956-15.774-10.956H232v21.818h11.052zm-11.05-46.66v21.44h5.666c10.862 0 14.64-4.344 14.64-10.766 0-8.123-6.423-10.673-14.734-10.673H232zm17.095 22.29c5.195-2.832 7.65-6.516 7.65-11.9 0-6.14-3.4-13.79-17.756-13.79h-11.14v53.554h15.68c10.86 0 17.95-5.478 17.95-14.26 0-7.085-4.25-11.808-12.37-13.603z" mask="url(#f)"/> </g> <g transform="translate(-135 -169)"> <mask id="h" fill="#fff"> <use xlink:href="#g"/> </mask> <path fill="#004761" d="M418.73 214.665c-1.794-.944-2.645-1.322-3.778-1.322-2.077 0-3.59 1.417-3.59 3.21 0 4.534 8.03 2.362 8.03 8.313 0 2.55-2.173 4.534-4.912 4.534-1.322 0-2.834-.472-4.25-1.417v-1.51c1.89 1.32 2.928 1.793 4.25 1.793 1.983 0 3.495-1.51 3.495-3.4 0-4.817-8.03-2.645-8.03-8.217 0-2.46 2.174-4.44 4.818-4.44 1.322 0 2.645.28 3.967 1.03v1.41z" mask="url(#h)"/> </g> <g transform="translate(-135 -169)"> <mask id="j" fill="#fff"> <use xlink:href="#i"/> </mask> <path fill="#004761" d="M430.82 229.4c-5.006 0-8.878-3.778-8.878-8.596 0-4.816 3.872-8.595 8.878-8.595s8.88 3.77 8.88 8.59-3.874 8.59-8.88 8.59m0-16.06c-4.155 0-7.462 3.3-7.462 7.46 0 4.15 3.307 7.46 7.462 7.46 4.25 0 7.462-3.31 7.462-7.47 0-4.156-3.212-7.46-7.462-7.46" mask="url(#j)"/> </g> <g transform="translate(-135 -169)"> <mask id="l" fill="#fff"> <use xlink:href="#k"/> </mask> <path fill="#004761" d="M457.172 215.042c-2.078-1.133-4.06-1.7-6.045-1.7-4.155 0-7.272 3.21-7.272 7.46 0 4.346 3.117 7.463 7.462 7.463 1.89 0 3.684-.567 6.045-1.794v1.42c-1.984 1.04-4.062 1.51-6.045 1.51-5.1 0-8.878-3.68-8.878-8.59 0-5.1 4.15-8.59 8.78-8.59 1.89 0 3.87.47 5.95 1.42v1.42z" mask="url(#l)"/> </g> <g transform="translate(-135 -169)"> <mask id="n" fill="#fff"> <use xlink:href="#m"/> </mask> <path fill="#004761" d="M460.1 212.398h1.228v16.812h-1.23z" mask="url(#n)"/> </g> <g transform="translate(-135 -169)"> <mask id="p" fill="#fff"> <use xlink:href="#o"/> </mask> <path fill="#004761" d="M474.646 213.437h-7.84v6.8h7.65v1.04h-7.65v6.894h8.03v1.04h-9.353V212.4h9.163" mask="url(#p)"/> </g> <g transform="translate(-135 -169)"> <mask id="r" fill="#fff"> <use xlink:href="#q"/> </mask> <path fill="#004761" d="M483.713 212.4c7.084 0 9.16 4.72 9.16 8.404 0 3.873-2.265 8.407-8.972 8.407h-6.13V212.4h5.95zm-4.628 15.77h4.723c4.062 0 7.65-2.644 7.65-7.366 0-4.344-3.117-7.367-7.65-7.367h-4.723v14.734z" mask="url(#r)"/> </g> <g transform="translate(-135 -169)"> <mask id="t" fill="#fff"> <use xlink:href="#s"/> </mask> <path fill="#004761" d="M509.687 229.21h-1.322l-2.645-5.856h-8.217l-2.74 5.856h-1.32l7.744-16.907h.756l7.744 16.907zm-8.123-14.83l-3.59 7.935h7.18l-3.59-7.934z" mask="url(#t)"/> </g> <g transform="translate(-135 -169)"> <mask id="v" fill="#fff"> <use xlink:href="#u"/> </mask> <path fill="#004761" d="M517.904 212.4c7.18 0 9.16 4.72 9.16 8.404 0 3.873-2.266 8.407-8.972 8.407h-6.14V212.4h5.952zm-4.628 15.77H518c4.06 0 7.65-2.644 7.65-7.366 0-4.344-3.118-7.367-7.65-7.367h-4.724v14.734z" mask="url(#v)"/> </g> <g transform="translate(-135 -169)"> <mask id="x" fill="#fff"> <use xlink:href="#w"/> </mask> <path fill="#004761" d="M539.723 213.437h-7.935v6.8h7.745v1.04h-7.745v6.894h8.123v1.04h-9.35V212.4h9.17" mask="url(#x)"/> </g> <g transform="translate(-135 -169)"> <mask id="z" fill="#fff"> <use xlink:href="#y"/> </mask> <path fill="#004761" d="M414.29 237.9c4.535 0 5.668 2.36 5.668 4.344 0 1.605-.85 2.834-2.455 3.684 2.55.566 3.872 2.077 3.872 4.344 0 2.74-2.172 4.44-5.667 4.44h-4.91v-16.814h3.493zm-2.17 7.745h1.794c3.4 0 4.628-1.322 4.628-3.306 0-2.55-2.078-3.4-4.628-3.4h-1.795v6.7zm0 7.934h3.494c3.494 0 4.344-1.89 4.344-3.4 0-1.61-.85-3.41-4.91-3.41h-2.93v6.8z" mask="url(#z)"/> </g> <g transform="translate(-135 -169)"> <mask id="B" fill="#fff"> <use xlink:href="#A"/> </mask> <path fill="#004761" d="M428.837 237.9c4.062 0 5.573 2.077 5.573 4.344 0 1.89-1.04 3.306-3.212 4.06.755.38 1.417 1.418 2.267 2.552l3.778 5.856h-1.512l-2.92-4.63c-2.08-3.21-2.74-3.493-4.72-3.493h-2.26v8.12h-1.33V237.9h4.35zm-3.023 7.65h2.74c3.02 0 4.438-1.323 4.438-3.306 0-1.89-1.322-3.305-4.44-3.305h-2.738v6.61z" mask="url(#B)"/> </g> <g transform="translate(-135 -169)"> <mask id="D" fill="#fff"> <use xlink:href="#C"/> </mask> <path fill="#004761" d="M453.678 254.712h-1.417l-2.64-5.856h-8.22l-2.64 5.856h-1.32l7.75-17h.66l7.84 17zm-8.123-14.83l-3.684 7.935h7.28l-3.59-7.934z" mask="url(#D)"/> </g> <g transform="translate(-135 -169)"> <mask id="F" fill="#fff"> <use xlink:href="#E"/> </mask> <path fill="#004761" d="M464.256 240.167c-1.795-1.04-2.645-1.322-3.778-1.322-2.078 0-3.59 1.417-3.59 3.21 0 4.534 8.03 2.362 8.03 8.218 0 2.645-2.173 4.63-4.912 4.63-1.322 0-2.834-.474-4.25-1.418v-1.606c1.794 1.41 2.928 1.79 4.25 1.79 1.983 0 3.494-1.42 3.494-3.31 0-4.82-8.028-2.74-8.028-8.22 0-2.55 2.173-4.54 4.817-4.54 1.32 0 2.64.38 3.96 1.13v1.413z" mask="url(#F)"/> </g> <g transform="translate(-135 -169)"> <mask id="H" fill="#fff"> <use xlink:href="#G"/> </mask> <path fill="#004761" d="M468.505 237.9h1.23v16.812h-1.23z" mask="url(#H)"/> </g> <g transform="translate(-135 -169)"> <mask id="J" fill="#fff"> <use xlink:href="#I"/> </mask> <path fill="#004761" d="M475.59 253.58h8.31v1.132h-9.632V237.9h1.322" mask="url(#J)"/> </g> <g transform="translate(-135 -169)"> <mask id="L" fill="#fff"> <use xlink:href="#K"/> </mask> <path fill="#004761" d="M495.613 238.94h-7.84v6.8h7.653v1.038h-7.652v6.8h8.03v1.134h-9.352V237.9h9.16" mask="url(#L)"/> </g> <g transform="translate(-135 -169)"> <mask id="N" fill="#fff"> <use xlink:href="#M"/> </mask> <path fill="#004761" d="M499.11 237.9h1.32v16.812h-1.32z" mask="url(#N)"/> </g> <g transform="translate(-135 -169)"> <mask id="P" fill="#fff"> <use xlink:href="#O"/> </mask> <path fill="#004761" d="M509.215 237.9c4.062 0 5.572 2.077 5.572 4.344 0 1.89-1.134 3.306-3.212 4.06.757.38 1.417 1.418 2.268 2.552l3.778 5.856h-1.51l-3.02-4.63c-1.98-3.21-2.64-3.493-4.63-3.493h-2.26v8.12h-1.32V237.9h4.35zm-3.023 7.65h2.738c3.023 0 4.44-1.323 4.44-3.306 0-1.89-1.417-3.305-4.44-3.305h-2.738v6.61z" mask="url(#P)"/> </g> <g transform="translate(-135 -169)"> <mask id="R" fill="#fff"> <use xlink:href="#Q"/> </mask> <path fill="#004761" d="M534.056 254.712h-1.417l-2.65-5.856h-8.22l-2.65 5.856h-1.32l7.74-17h.66l7.84 17zm-8.218-14.83l-3.59 7.935h7.273l-3.68-7.934z" mask="url(#R)"/> </g> <g transform="translate(-135 -169)"> <mask id="T" fill="#fff"> <use xlink:href="#S"/> </mask> <path fill="#004761" d="M550.018 237.9c7.18 0 9.16 4.722 9.16 8.405 0 3.873-2.266 8.406-8.877 8.406h-6.14V237.9h5.86zm-4.535 15.68h4.723c4.062 0 7.65-2.55 7.65-7.274 0-4.344-3.21-7.367-7.744-7.367h-4.63v14.64z" mask="url(#T)"/> </g> <g transform="translate(-135 -169)"> <mask id="V" fill="#fff"> <use xlink:href="#U"/> </mask> <path fill="#004761" d="M571.836 238.94h-7.84v6.8h7.65v1.038h-7.65v6.8h8.027v1.134h-9.35V237.9h9.163" mask="url(#V)"/> </g> <g transform="translate(-135 -169)"> <mask id="X" fill="#fff"> <use xlink:href="#W"/> </mask> <path fill="#004761" d="M416.652 263.4c7.18 0 9.162 4.63 9.162 8.407 0 3.873-2.267 8.406-8.878 8.406h-6.14V263.4h5.856zm-4.533 15.68h4.72c4.06 0 7.65-2.55 7.65-7.272 0-4.345-3.21-7.367-7.75-7.367h-4.63v14.64z" mask="url(#X)"/> </g> <g transform="translate(-135 -169)"> <mask id="Z" fill="#fff"> <use xlink:href="#Y"/> </mask> <path fill="#004761" d="M438.47 264.44h-7.838v6.706h7.65v1.133h-7.65v6.8h8.028v1.13h-9.35V263.4h9.16" mask="url(#Z)"/> </g> <g transform="translate(-135 -169)"> <mask id="ab" fill="#fff"> <use xlink:href="#aa"/> </mask> <path fill="#004761" d="M445.933 263.402c4.156 0 5.572 2.077 5.572 4.344 0 1.89-1.038 3.306-3.21 4.06.755.38 1.415 1.324 2.266 2.552l3.78 5.856h-1.51l-2.93-4.63c-2.07-3.21-2.64-3.494-4.72-3.494h-2.26v8.124h-1.32v-16.812h4.35zm-3.023 7.65h2.834c2.928 0 4.345-1.323 4.345-3.306 0-1.89-1.33-3.306-4.44-3.306h-2.74v6.612z" mask="url(#ab)"/> </g> <g transform="translate(-135 -169)"> <mask id="ad" fill="#fff"> <use xlink:href="#ac"/> </mask> <path fill="#004761" d="M470.112 263.402h1.228v16.812h-1.228V265.29h-.094l-6.33 7.84-6.42-7.84v14.924h-1.324v-16.812h1.323l6.422 7.744" mask="url(#ad)"/> </g> <g transform="translate(-135 -169)"> <mask id="af" fill="#fff"> <use xlink:href="#ae"/> </mask> <path fill="#004761" d="M489.946 280.214h-1.416l-2.645-5.856h-8.218l-2.645 5.856h-1.417l7.84-17h.66l7.84 17zm-8.217-14.83l-3.59 7.935h7.27l-3.69-7.94z" mask="url(#af)"/> </g> <g transform="translate(-135 -169)"> <mask id="ah" fill="#fff"> <use xlink:href="#ag"/> </mask> <path fill="#004761" d="M501.848 264.44h-6.328v15.773h-1.323V264.44h-6.328v-1.04h13.97" mask="url(#ah)"/> </g> <g transform="translate(-135 -169)"> <mask id="aj" fill="#fff"> <use xlink:href="#ai"/> </mask> <path fill="#004761" d="M510.442 280.403c-5.006 0-8.878-3.778-8.878-8.596 0-4.912 3.872-8.69 8.878-8.69s8.974 3.778 8.974 8.69c0 4.818-3.968 8.596-8.974 8.596m.095-16.057c-4.25 0-7.557 3.21-7.557 7.46 0 4.157 3.306 7.368 7.557 7.368 4.156 0 7.462-3.21 7.462-7.367 0-4.25-3.31-7.46-7.47-7.46" mask="url(#aj)"/> </g> <g transform="translate(-135 -169)"> <mask id="al" fill="#fff"> <use xlink:href="#ak"/> </mask> <path fill="#004761" d="M524.138 279.08h8.31v1.134h-9.633V263.4h1.323" mask="url(#al)"/> </g> <g transform="translate(-135 -169)"> <mask id="an" fill="#fff"> <use xlink:href="#am"/> </mask> <path fill="#004761" d="M542.84 280.403c-5.007 0-8.88-3.778-8.88-8.596 0-4.912 3.873-8.69 8.88-8.69 5.005 0 8.877 3.778 8.877 8.69 0 4.818-3.872 8.596-8.878 8.596m0-16.057c-4.25 0-7.56 3.21-7.56 7.46 0 4.157 3.3 7.368 7.55 7.368s7.46-3.21 7.46-7.367c0-4.25-3.21-7.46-7.46-7.46" mask="url(#an)"/> </g> <g transform="translate(-135 -169)"> <mask id="ap" fill="#fff"> <use xlink:href="#ao"/> </mask> <path fill="#004761" d="M569.19 266.046c-1.983-1.134-3.872-1.7-5.95-1.7-4.25 0-7.367 3.117-7.367 7.46 0 3.78 2.456 7.368 7.745 7.368 1.983 0 3.306-.378 4.628-1.04v-4.532h-3.59v-1.04h4.912v6.424c-1.982.944-4.06 1.416-5.95 1.416-5.29 0-9.16-3.683-9.16-8.69 0-4.91 3.776-8.595 8.972-8.595 1.89 0 3.4.38 5.76 1.417v1.512z" mask="url(#ap)"/> </g> <g transform="translate(-135 -169)"> <mask id="ar" fill="#fff"> <use xlink:href="#aq"/> </mask> <path fill="#004761" d="M573.064 263.402h1.32v16.812h-1.32z" mask="url(#ar)"/> </g> <g transform="translate(-135 -169)"> <mask id="at" fill="#fff"> <use xlink:href="#as"/> </mask> <path fill="#004761" d="M592.898 280.214h-1.323l-2.645-5.856h-8.218l-2.738 5.856h-1.322l7.745-17h.756l7.745 17zm-8.123-14.83l-3.59 7.935h7.18l-3.59-7.94z" mask="url(#at)"/> </g> <g transform="translate(-135 -169)"> <mask id="av" fill="#fff"> <use xlink:href="#au"/> </mask> <path fill="#DA4513" d="M414.952 300.05c3.4 0 5.573 1.888 5.573 4.72 0 1.985-1.04 3.4-2.834 4.157 1.52 1.04 2.46 2.55 3.78 4.63.66 1.226 1.14 1.793 2.27 3.398h-2.93l-2.17-3.494c-2.27-3.49-3.21-3.87-4.44-3.87h-1.04v7.37h-2.46v-16.91h4.25zm-1.794 7.366h1.51c2.646 0 3.4-1.323 3.308-2.74 0-1.51-.945-2.55-3.307-2.55h-1.52v5.29z" mask="url(#av)"/> </g> <g transform="translate(-135 -169)"> <mask id="ax" fill="#fff"> <use xlink:href="#aw"/> </mask> <path fill="#DA4513" d="M437.243 302.22h-7.18v5.102h6.897v2.172h-6.896v5.29h7.368v2.17h-9.73V300.05h9.54" mask="url(#ax)"/> </g> <g transform="translate(-135 -169)"> <mask id="az" fill="#fff"> <use xlink:href="#ay"/> </mask> <path fill="#DA4513" d="M456.89 315.727c-2.268 1.04-4.062 1.417-6.423 1.417-5.195 0-8.975-3.59-8.975-8.5 0-5.006 3.875-8.785 9.068-8.785 1.89 0 3.307.28 5.95 1.41v2.45c-1.983-1.04-4.06-1.61-6.044-1.61-3.685 0-6.518 2.74-6.518 6.42 0 3.68 2.833 6.322 6.8 6.322 1.322 0 2.55-.284 3.684-.66v-3.4h-3.21v-2.174h5.666v7.083z" mask="url(#az)"/> </g> <g transform="translate(-135 -169)"> <mask id="aB" fill="#fff"> <use xlink:href="#aA"/> </mask> <path fill="#DA4513" d="M462.46 300.05h2.457v16.905h-2.456z" mask="url(#aB)"/> </g> <g transform="translate(-135 -169)"> <mask id="aD" fill="#fff"> <use xlink:href="#aC"/> </mask> <path fill="#DA4513" d="M478.99 299.86c5.572 0 9.067 3.966 9.067 8.594 0 4.628-3.4 8.69-9.067 8.69-5.572 0-8.973-4.062-8.973-8.69 0-4.628 3.494-8.595 8.973-8.595m0 15.01c3.778 0 6.61-2.74 6.61-6.43s-2.832-6.33-6.61-6.33c-3.778 0-6.517 2.64-6.517 6.32 0 3.687 2.74 6.425 6.517 6.425" mask="url(#aD)"/> </g> <g transform="translate(-135 -169)"> <mask id="aF" fill="#fff"> <use xlink:href="#aE"/> </mask> <path fill="#DA4513" d="M508.647 316.955h-2.078l-11.24-13.034v13.04h-2.27v-16.91h1.98l11.33 13.04v-13.04h2.26" mask="url(#aF)"/> </g> <g transform="translate(-135 -169)"> <mask id="aH" fill="#fff"> <use xlink:href="#aG"/> </mask> <path fill="#DA4513" d="M529.05 316.955h-2.456l-2.268-5.006h-7.083l-2.173 5h-2.455l7.272-17h1.7l7.462 17zm-10.957-7.178h5.29l-2.74-6.045-2.55 6.045z" mask="url(#aH)"/> </g> <g transform="translate(-135 -169)"> <mask id="aJ" fill="#fff"> <use xlink:href="#aI"/> </mask> <path fill="#DA4513" d="M535.377 314.783h7.65v2.172h-10.01V300.05h2.36" mask="url(#aJ)"/> </g> <g transform="translate(-135 -169)"> <mask id="aL" fill="#fff"> <use xlink:href="#aK"/> </mask> <path fill="#DA4513" d="M414.952 325.55c3.4 0 5.573 1.795 5.573 4.723 0 1.983-1.04 3.4-2.834 4.156 1.52.94 2.46 2.55 3.78 4.62.66 1.13 1.14 1.7 2.27 3.3h-2.93l-2.17-3.4c-2.27-3.5-3.21-3.88-4.44-3.88h-1.04v7.27h-2.46v-16.81h4.25zm-1.794 7.367h1.51c2.646 0 3.4-1.323 3.308-2.74 0-1.605-.945-2.55-3.307-2.55h-1.52v5.29z" mask="url(#aL)"/> </g> <g transform="translate(-135 -169)"> <mask id="aN" fill="#fff"> <use xlink:href="#aM"/> </mask> <path fill="#DA4513" d="M427.703 325.55h2.456v16.812h-2.46z" mask="url(#aN)"/> </g> <g transform="translate(-135 -169)"> <mask id="aP" fill="#fff"> <use xlink:href="#aO"/> </mask> <path fill="#DA4513" d="M444.232 325.36c5.572 0 9.067 3.968 9.067 8.596 0 4.534-3.4 8.69-9.17 8.69-5.48 0-8.98-4.06-8.98-8.69 0-4.628 3.59-8.595 9.07-8.595m0 15.02c3.78 0 6.52-2.74 6.52-6.42s-2.74-6.42-6.52-6.42c-3.78 0-6.52 2.74-6.52 6.43s2.74 6.43 6.51 6.43" mask="url(#aP)"/> </g> <g transform="translate(-135 -169)"> <mask id="aR" fill="#fff"> <use xlink:href="#aQ"/> </mask> <path fill="#DA4513" d="M467.278 325.55h6.61c6.14 0 8.88 4.44 8.88 8.406 0 4.345-3.306 8.406-8.88 8.406h-6.61V325.55zm2.456 14.64h3.872c5.48 0 6.706-4.156 6.706-6.234 0-3.306-2.172-6.233-6.895-6.233h-3.684v12.467z" mask="url(#aR)"/> </g> <g transform="translate(-135 -169)"> <mask id="aT" fill="#fff"> <use xlink:href="#aS"/> </mask> <path fill="#DA4513" d="M497.408 327.723h-7.084v5.1h6.896v2.172h-6.896v5.195h7.367v2.173h-9.82V325.55h9.54" mask="url(#aT)"/> </g> <g transform="translate(-135 -169)"> <mask id="aV" fill="#fff"> <use xlink:href="#aU"/> </mask> <path fill="#DA4513" d="M513.653 342.55c0 3.212-1.228 5.48-4.627 5.48h-.662l-.472-2.268h.566c2.645 0 2.833-1.322 2.833-3.872v-16.34h2.37v17z" mask="url(#aV)"/> </g> <g transform="translate(-135 -169)"> <mask id="aX" fill="#fff"> <use xlink:href="#aW"/> </mask> <path fill="#DA4513" d="M534.15 342.362h-2.456l-2.268-4.91h-7.178l-2.077 4.91h-2.45l7.18-16.907h1.7l7.56 16.907zm-10.957-7.083h5.195l-2.646-6.14-2.55 6.14z" mask="url(#aX)"/> </g> <g transform="translate(-135 -169)"> <mask id="aZ" fill="#fff"> <use xlink:href="#aY"/> </mask> <path fill="#DA4513" d="M553.606 342.362h-2.078l-11.24-12.94v12.94h-2.267V325.55h1.99l11.34 13.034V325.55h2.27" mask="url(#aZ)"/> </g> <g transform="translate(-135 -169)"> <mask id="bb" fill="#fff"> <use xlink:href="#ba"/> </mask> <path fill="#DA4513" d="M569.002 327.723h-7.18v5.1h6.897v2.172h-6.9v5.195h7.36v2.173h-9.73V325.55H569" mask="url(#bb)"/> </g> <g transform="translate(-135 -169)"> <mask id="bd" fill="#fff"> <use xlink:href="#bc"/> </mask> <path fill="#DA4513" d="M573.913 325.55h2.36v16.812h-2.36z" mask="url(#bd)"/> </g> <g transform="translate(-135 -169)"> <mask id="bf" fill="#fff"> <use xlink:href="#be"/> </mask> <path fill="#DA4513" d="M586.38 325.55c3.4 0 5.573 1.795 5.573 4.723 0 1.983-1.038 3.4-2.833 4.156 1.51.94 2.455 2.55 3.778 4.62.66 1.13 1.133 1.7 2.267 3.3h-2.928l-2.173-3.4c-2.267-3.5-3.212-3.88-4.44-3.88h-1.037v7.27h-2.456v-16.81h4.25zm-1.793 7.367h1.51c2.646 0 3.4-1.323 3.307-2.74 0-1.605-.944-2.55-3.306-2.55h-1.51v5.29z" mask="url(#bf)"/> </g> <g transform="translate(-135 -169)"> <mask id="bh" fill="#fff"> <use xlink:href="#bg"/> </mask> <path fill="#DA4513" d="M605.933 325.36c5.478 0 9.067 3.968 9.067 8.596 0 4.534-3.4 8.69-9.162 8.69-5.478 0-8.973-4.06-8.973-8.69 0-4.628 3.588-8.595 9.068-8.595m0 15.02c3.777 0 6.517-2.74 6.517-6.42s-2.74-6.42-6.517-6.42c-3.778 0-6.517 2.74-6.517 6.43s2.738 6.43 6.517 6.43" mask="url(#bh)"/> </g> </g></svg>