<?xml version="1.0" encoding="UTF-8"?>
<svg width="58px" height="45px" viewBox="0 0 58 45" version="1.1" xmlns="http://www.w3.org/2000/svg" xmlns:xlink="http://www.w3.org/1999/xlink">
    <!-- Generator: Sketch 46.2 (44496) - http://www.bohemiancoding.com/sketch -->
    <title>icon-menu</title>
    <desc>Created with Sketch.</desc>
    <defs></defs>
    <g id="Page-1" stroke="none" stroke-width="1" fill="none" fill-rule="evenodd">
        <g id="icon-menu" fill-rule="nonzero" fill="#FFFFFF">
            <path d="M54.416,8.29 L3.584,8.29 C1.613,8.29 0,6.677 0,4.706 L0,3.584 C0,1.613 1.613,0 3.584,0 L54.416,0 C56.387,0 58,1.613 58,3.584 L58,4.706 C58,6.677 56.387,8.29 54.416,8.29" id="Fill-93"></path>
            <path d="M54.416,26.644 L3.584,26.644 C1.613,26.644 0,25.031 0,23.06 L0,21.939 C0,19.968 1.613,18.355 3.584,18.355 L54.416,18.355 C56.387,18.355 58,19.968 58,21.939 L58,23.06 C58,25.031 56.387,26.644 54.416,26.644" id="Fill-94"></path>
            <path d="M54.416,45 L3.584,45 C1.613,45 0,43.387 0,41.416 L0,40.294 C0,38.323 1.613,36.71 3.584,36.71 L54.416,36.71 C56.387,36.71 58,38.323 58,40.294 L58,41.416 C58,43.387 56.387,45 54.416,45" id="Fill-95"></path>
        </g>
    </g>
</svg>