<?xml version="1.0" encoding="UTF-8"?>
<svg width="43px" height="54px" viewBox="0 0 43 54" version="1.1" xmlns="http://www.w3.org/2000/svg" xmlns:xlink="http://www.w3.org/1999/xlink">
    <!-- Generator: Sketch 46.2 (44496) - http://www.bohemiancoding.com/sketch -->
    <title>Clipped</title>
    <desc>Created with Sketch.</desc>
    <defs></defs>
    <g id="Page-1" stroke="none" stroke-width="1" fill="none" fill-rule="evenodd">
        <g id="SBDRJ_01" transform="translate(-936.000000, -1260.000000)" fill-rule="nonzero" fill="#FFFFFF">
            <g id="Clipped" transform="translate(501.000000, 0.000000)">
                <g id="Group">
                    <g id="Clipped" transform="translate(435.000000, 1260.000000)">
                        <path d="M16.644,47.062 C15.99,48.808 16.837,51.211 18.531,52.458 C20.392,53.826 22.883,53.79 24.689,52.367 C26.311,51.091 27.111,48.691 26.447,47.062 L16.644,47.062 Z" id="Shape"></path>
                        <path d="M42.289,41.635 C42.256,41.162 42.044,40.672 41.806,40.249 C41.338,39.415 40.722,38.66 40.296,37.808 C38.454,34.118 37.746,30.142 37.478,26.071 C37.349,24.126 37.386,22.165 37.18,20.229 C36.832,16.965 35.54,14.098 33.19,11.757 C31.105,9.681 28.578,8.396 25.752,7.671 C25.418,7.586 25.317,7.45 25.325,7.117 C25.346,6.278 25.35,5.439 25.324,4.6 C25.262,2.643 23.754,1.113 21.775,0.972 C19.949,0.843 18.133,2.267 17.89,4.138 C17.759,5.143 17.816,6.175 17.818,7.197 C17.819,7.508 17.745,7.649 17.422,7.721 C16.903,7.835 16.391,7.993 15.892,8.175 C10.241,10.229 6.788,14.132 5.996,20.166 C5.763,21.942 5.814,23.755 5.718,25.551 C5.548,28.727 5.095,31.856 4.082,34.884 C3.412,36.886 2.588,38.807 1.188,40.44 C0.945,40.724 0.865,41.185 0.804,41.579 C0.741,41.996 0.79,42.431 0.79,42.858 L0.79,44.826 L42.311,44.826 C42.312,43.732 42.36,42.68 42.289,41.635" id="Shape"></path>
                    </g>
                </g>
            </g>
        </g>
    </g>
</svg>