<?xml version="1.0" encoding="UTF-8"?>
<svg width="49px" height="48px" viewBox="0 0 49 48" version="1.1" xmlns="http://www.w3.org/2000/svg" xmlns:xlink="http://www.w3.org/1999/xlink">
    <!-- Generator: Sketch 46.2 (44496) - http://www.bohemiancoding.com/sketch -->
    <title>Clipped</title>
    <desc>Created with Sketch.</desc>
    <defs></defs>
    <g id="Page-1" stroke="none" stroke-width="1" fill="none" fill-rule="evenodd">
        <g id="SBDRJ_01" transform="translate(-1090.000000, -1263.000000)" fill-rule="nonzero" fill="#FFFFFF">
            <g id="Clipped" transform="translate(501.000000, 0.000000)">
                <g id="Group">
                    <g id="Clipped" transform="translate(589.000000, 1263.000000)">
                        <path d="M43.105,9.541 C43.041,9.655 42.985,9.76 42.923,9.861 C41.94,11.499 40.96,13.139 39.968,14.772 C39.83,14.999 39.825,15.163 39.939,15.418 C40.472,16.629 40.978,17.853 41.459,19.085 C41.559,19.336 41.657,19.471 41.924,19.536 C43.778,19.986 45.627,20.462 47.484,20.908 C47.794,20.981 47.91,21.117 47.945,21.429 C48.15,23.204 48.153,24.978 47.945,26.753 C47.91,27.052 47.819,27.209 47.497,27.286 C45.64,27.728 43.791,28.202 41.936,28.655 C41.678,28.718 41.564,28.839 41.463,29.097 C40.977,30.341 40.459,31.575 39.928,32.799 C39.832,33.02 39.818,33.168 39.944,33.377 C40.95,35.033 41.937,36.699 42.945,38.353 C43.085,38.582 43.089,38.728 42.917,38.942 C41.762,40.375 40.468,41.666 39.036,42.82 C38.84,42.978 38.701,42.987 38.482,42.854 C36.827,41.847 35.16,40.861 33.504,39.855 C33.283,39.721 33.129,39.729 32.892,39.833 C31.68,40.362 30.459,40.876 29.226,41.354 C28.955,41.458 28.82,41.572 28.752,41.846 C28.303,43.687 27.832,45.524 27.389,47.367 C27.312,47.687 27.175,47.81 26.844,47.848 C25.068,48.05 23.293,48.048 21.519,47.845 C21.224,47.811 21.086,47.707 21.015,47.414 C20.567,45.559 20.097,43.708 19.644,41.853 C19.579,41.584 19.455,41.46 19.178,41.355 C17.944,40.88 16.723,40.367 15.51,39.839 C15.276,39.736 15.122,39.717 14.898,39.854 C13.244,40.861 11.576,41.845 9.922,42.855 C9.679,43.003 9.536,42.964 9.334,42.802 C7.914,41.655 6.632,40.371 5.483,38.95 C5.315,38.742 5.299,38.597 5.443,38.361 C6.446,36.719 7.427,35.065 8.425,33.421 C8.563,33.194 8.568,33.031 8.454,32.775 C7.924,31.578 7.42,30.367 6.942,29.148 C6.836,28.874 6.732,28.717 6.431,28.644 C4.587,28.202 2.75,27.728 0.909,27.286 C0.6,27.212 0.482,27.08 0.447,26.765 C0.243,24.99 0.24,23.216 0.446,21.441 C0.481,21.136 0.576,20.985 0.894,20.909 C2.737,20.467 4.574,19.995 6.415,19.549 C6.704,19.479 6.83,19.347 6.94,19.06 C7.404,17.85 7.899,16.65 8.429,15.467 C8.563,15.168 8.554,14.977 8.394,14.714 C7.407,13.094 6.442,11.461 5.451,9.843 C5.296,9.591 5.326,9.437 5.499,9.223 C6.633,7.825 7.895,6.559 9.292,5.423 C9.529,5.23 9.697,5.193 9.98,5.366 C11.607,6.366 13.253,7.335 14.885,8.329 C15.121,8.474 15.285,8.449 15.531,8.341 C16.731,7.817 17.941,7.312 19.162,6.837 C19.426,6.734 19.572,6.632 19.641,6.353 C20.088,4.51 20.562,2.674 21.001,0.831 C21.083,0.483 21.245,0.381 21.583,0.343 C23.333,0.145 25.079,0.148 26.829,0.345 C27.153,0.381 27.307,0.482 27.387,0.814 C27.828,2.659 28.299,4.494 28.749,6.335 C28.815,6.602 28.936,6.729 29.213,6.835 C30.448,7.31 31.667,7.825 32.881,8.352 C33.114,8.454 33.267,8.477 33.492,8.34 C35.146,7.332 36.812,6.344 38.471,5.344 C38.655,5.233 38.786,5.175 38.993,5.341 C40.46,6.518 41.784,7.833 42.949,9.311 C43.007,9.382 43.053,9.462 43.105,9.541 M32.563,24.097 C32.562,19.488 28.806,15.735 24.196,15.736 C19.582,15.737 15.835,19.487 15.835,24.1 C15.835,28.712 19.588,32.464 24.199,32.463 C28.808,32.462 32.563,28.705 32.563,24.097" id="Shape"></path>
                    </g>
                </g>
            </g>
        </g>
    </g>
</svg>