<?xml version="1.0" encoding="UTF-8"?>
<svg width="22px" height="29px" viewBox="0 0 22 29" version="1.1" xmlns="http://www.w3.org/2000/svg" xmlns:xlink="http://www.w3.org/1999/xlink">
    <!-- Generator: Sketch 46.2 (44496) - http://www.bohemiancoding.com/sketch -->
    <title>Group</title>
    <desc>Created with Sketch.</desc>
    <defs></defs>
    <g id="Page-1" stroke="none" stroke-width="1" fill="none" fill-rule="evenodd">
        <g transform="translate(-127.000000, -82.000000)" id="Group" fill="#FFFFFF">
            <g transform="translate(127.000000, 82.000000)">
                <path d="M19.8323213,26.0011299 L19.4673736,26.0011299 L8.85210724,26.0011299 C6.41912238,26.0011299 3.9866855,26.0022569 1.55424861,26.0000028 C1.19752043,25.9994393 0.870930568,26.0828391 0.584342487,26.3048628 C0.0774706424,26.6970672 -0.125278095,27.3749722 0.078018612,27.9869462 C0.286247045,28.6130081 0.837504425,28.9995774 1.53232983,28.9995774 C7.6016407,29.0001409 13.6698556,29.0001409 19.7380705,28.9995774 C19.8142383,28.9995774 19.8898581,28.9933787 20,28.9883071 C19.3462723,28.0297732 19.1933888,27.0582784 19.8323213,26.0011299" id="Fill-22"></path>
                <path d="M0.0174911543,25 C0.643434141,24.5795124 1.31691034,24.5728992 2,24.5894321 L2,0 C1.73723212,0 1.49689565,0 1.2560251,0.000551097787 C0.462380666,0.00220439115 0.000400560785,0.472290803 0.000400560785,1.28736443 C-0.000133520262,9.09697117 -0.000133520262,16.9065779 0.000400560785,24.7161846 C0.000400560785,24.7982982 0.0100140196,24.8804118 0.0174911543,25" id="Fill-23"></path>
                <path d="M19.6592637,3.94843004 C19.6592637,4.25883592 19.4149371,4.50985006 19.1128011,4.50985006 L6.51689138,4.50985006 C6.21530071,4.50985006 5.96988335,4.25883592 5.96988335,3.94843004 L5.96988335,3.34442726 C5.96988335,3.03458168 6.21530071,2.78300724 6.51689138,2.78300724 L19.1128011,2.78300724 C19.4149371,2.78300724 19.6592637,3.03458168 19.6592637,3.34442726 L19.6592637,3.94843004 Z M19.6592637,7.64920774 C19.6592637,7.95961362 19.4149371,8.21118806 19.1128011,8.21118806 L6.51689138,8.21118806 C6.21530071,8.21118806 5.96988335,7.95961362 5.96988335,7.64920774 L5.96988335,7.04576526 C5.96988335,6.73535938 6.21530071,6.48378493 6.51689138,6.48378493 L19.1128011,6.48378493 C19.4149371,6.48378493 19.6592637,6.73535938 19.6592637,7.04576526 L19.6592637,7.64920774 Z M19.6592637,11.3505457 C19.6592637,11.6609516 19.4149371,11.9119658 19.1128011,11.9119658 L6.51689138,11.9119658 C6.21530071,11.9119658 5.96988335,11.6609516 5.96988335,11.3505457 L5.96988335,10.746543 C5.96988335,10.4366974 6.21530071,10.1851229 6.51689138,10.1851229 L19.1128011,10.1851229 C19.4149371,10.1851229 19.6592637,10.4366974 19.6592637,10.746543 L19.6592637,11.3505457 Z M19.6592637,15.0513234 C19.6592637,15.3617293 19.4149371,15.6133037 19.1128011,15.6133037 L6.51689138,15.6133037 C6.21530071,15.6133037 5.96988335,15.3617293 5.96988335,15.0513234 L5.96988335,14.4478809 C5.96988335,14.1374751 6.21530071,13.8859006 6.51689138,13.8859006 L19.1128011,13.8859006 C19.4149371,13.8859006 19.6592637,14.1374751 19.6592637,14.4478809 L19.6592637,15.0513234 Z M20.6872898,0 C15.2286623,0 9.77058022,0 4.31249811,0 L4,0 L4,24.9865528 C4.10525678,24.9915955 4.20015149,24.9994397 4.29450083,24.9994397 C9.62060294,25 14.946705,25.0005603 20.2728072,24.9988794 C21.3531889,24.9988794 21.9994546,24.3332437 21.9994546,23.2277729 C22,15.9382774 22,8.64822161 22,1.3587261 C22,0.467850019 21.5467959,0 20.6872898,0 L20.6872898,0 Z" id="Fill-24"></path>
            </g>
        </g>
    </g>
</svg>