<?xml version="1.0" encoding="UTF-8"?>
<svg width="41px" height="43px" viewBox="0 0 41 43" version="1.1" xmlns="http://www.w3.org/2000/svg" xmlns:xlink="http://www.w3.org/1999/xlink">
    <!-- Generator: Sketch 46.2 (44496) - http://www.bohemiancoding.com/sketch -->
    <title>Group</title>
    <desc>Created with Sketch.</desc>
    <defs></defs>
    <g id="Page-1" stroke="none" stroke-width="1" fill="none" fill-rule="evenodd">
        <g transform="translate(-68.000000, -521.000000)" id="Group-67" fill="#FFFFFF">
            <g>
                <g id="Group" transform="translate(68.000000, 521.000000)">
                    <path d="M30.792,37.3438 C30.792,38.1668 30.782,38.9898 30.8,39.8118 C30.804,39.9828 30.907,40.1508 30.964,40.3208 C31.109,40.2338 31.284,40.1748 31.396,40.0558 C33.67,37.6598 35.938,35.2578 38.201,32.8508 C38.305,32.7418 38.345,32.5728 38.414,32.4328 C38.268,32.3828 38.123,32.2898 37.977,32.2888 C36.473,32.2778 34.969,32.2768 33.465,32.2818 C31.892,32.2878 30.805,33.3768 30.793,34.9528 C30.787,35.7498 30.792,36.5468 30.792,37.3438 L30.792,37.3438 Z M20.669,28.4318 C20.014,28.4318 19.358,28.4288 18.702,28.4328 C17.789,28.4368 17.073,29.0858 17.03,30.0008 C16.995,30.7448 16.997,31.4918 17.028,32.2368 C17.067,33.1708 17.785,33.8338 18.717,33.8368 C20.015,33.8418 21.313,33.8418 22.611,33.8368 C23.521,33.8328 24.24,33.1758 24.284,32.2608 C24.319,31.5168 24.317,30.7688 24.286,30.0248 C24.248,29.0908 23.532,28.4368 22.598,28.4318 C21.955,28.4288 21.312,28.4318 20.669,28.4318 L20.669,28.4318 Z M20.669,26.5588 C21.312,26.5588 21.954,26.5668 22.597,26.5578 C23.55,26.5448 24.256,25.8738 24.29,24.9178 C24.315,24.1988 24.317,23.4778 24.288,22.7598 C24.25,21.8228 23.547,21.1578 22.611,21.1518 C21.313,21.1428 20.016,21.1438 18.717,21.1508 C17.76,21.1568 17.059,21.8238 17.024,22.7828 C16.999,23.4888 17,24.1978 17.023,24.9038 C17.056,25.8798 17.762,26.5478 18.741,26.5578 C19.384,26.5648 20.026,26.5588 20.669,26.5588 L20.669,26.5588 Z M20.627,19.2678 C21.282,19.2678 21.938,19.2708 22.594,19.2668 C23.533,19.2608 24.246,18.6118 24.286,17.6778 C24.318,16.9338 24.319,16.1858 24.284,15.4428 C24.242,14.5278 23.525,13.8658 22.616,13.8608 C21.317,13.8538 20.019,13.8558 18.721,13.8608 C17.787,13.8648 17.068,14.5248 17.028,15.4588 C16.997,16.2028 16.996,16.9498 17.03,17.6948 C17.072,18.6108 17.783,19.2588 18.698,19.2668 C19.341,19.2718 19.983,19.2678 20.627,19.2678 L20.627,19.2678 Z M30.607,21.1488 C29.978,21.1488 29.348,21.1468 28.718,21.1498 C27.672,21.1548 26.973,21.8088 26.93,22.8578 C26.903,23.5128 26.905,24.1698 26.929,24.8248 C26.966,25.8858 27.676,26.5558 28.738,26.5588 C29.973,26.5618 31.207,26.5618 32.441,26.5588 C33.464,26.5548 34.175,25.9038 34.226,24.8808 C34.259,24.2008 34.257,23.5178 34.227,22.8378 C34.183,21.8088 33.48,21.1558 32.459,21.1498 C31.842,21.1468 31.225,21.1488 30.607,21.1488 L30.607,21.1488 Z M10.709,33.8378 C11.326,33.8378 11.943,33.8388 12.561,33.8378 C13.643,33.8368 14.352,33.1658 14.388,32.0818 C14.408,31.4528 14.403,30.8218 14.389,30.1918 C14.366,29.1848 13.636,28.3768 12.573,28.4198 C11.341,28.4698 10.104,28.4668 8.87,28.4208 C7.875,28.3838 7.135,29.1308 7.089,30.1028 C7.057,30.7818 7.06,31.4658 7.087,32.1468 C7.129,33.1648 7.847,33.8348 8.857,33.8378 C9.475,33.8398 10.092,33.8378 10.709,33.8378 L10.709,33.8378 Z M10.739,26.5598 C11.344,26.5598 11.948,26.5608 12.553,26.5588 C13.642,26.5558 14.349,25.8928 14.387,24.8098 C14.409,24.1678 14.407,23.5238 14.387,22.8818 C14.357,21.9558 13.711,21.1058 12.581,21.1408 C11.348,21.1778 10.112,21.1768 8.879,21.1408 C7.701,21.1058 7.097,22.0368 7.082,22.8908 C7.071,23.5328 7.065,24.1768 7.084,24.8198 C7.114,25.8728 7.83,26.5538 8.888,26.5588 C9.505,26.5618 10.122,26.5598 10.739,26.5598 L10.739,26.5598 Z M30.582,19.2678 C31.199,19.2678 31.818,19.2378 32.433,19.2738 C33.518,19.3388 34.194,18.4898 34.229,17.5698 C34.253,16.9018 34.256,16.2318 34.228,15.5648 C34.185,14.5268 33.467,13.8618 32.429,13.8608 C31.194,13.8588 29.96,13.8588 28.726,13.8608 C27.689,13.8618 26.975,14.5278 26.931,15.5698 C26.902,16.2368 26.903,16.9068 26.931,17.5738 C26.969,18.5168 27.662,19.3398 28.73,19.2748 C29.346,19.2368 29.965,19.2678 30.582,19.2678 L30.582,19.2678 Z M10.73,19.2678 C11.347,19.2678 11.966,19.2368 12.581,19.2748 C13.665,19.3418 14.355,18.4958 14.387,17.5378 C14.407,16.8958 14.409,16.2518 14.387,15.6098 C14.349,14.5288 13.637,13.8608 12.554,13.8598 C11.332,13.8588 10.11,13.8578 8.889,13.8598 C7.849,13.8618 7.131,14.5248 7.088,15.5618 C7.06,16.2418 7.057,16.9258 7.089,17.6058 C7.138,18.6178 7.837,19.2628 8.84,19.2668 C9.47,19.2698 10.1,19.2678 10.73,19.2678 L10.73,19.2678 Z M28.364,5.6158 C28.364,6.1768 28.363,6.7148 28.365,7.2518 C28.373,9.3048 29.882,10.8058 31.928,10.7988 C33.948,10.7918 35.461,9.2818 35.472,7.2598 C35.475,6.7208 35.473,6.1828 35.473,5.6498 C38.604,5.1678 40.552,7.2628 40.551,9.6508 C40.55,17.4208 40.552,25.1898 40.548,32.9588 C40.548,33.9788 40.199,34.8698 39.492,35.6148 C37.809,37.3858 36.13,39.1618 34.44,40.9278 C33.693,41.7098 32.765,42.1008 31.682,42.1008 C22.716,42.1018 13.751,42.1048 4.785,42.0998 C2.521,42.0988 0.786,40.3658 0.765,38.0898 C0.749,36.5588 0.761,35.0288 0.761,33.4978 C0.761,25.5998 0.76,17.7018 0.762,9.8038 C0.763,7.8558 1.801,6.3168 3.54,5.8058 C4.179,5.6178 4.871,5.6118 5.608,5.5138 C5.608,6.1798 5.605,6.7398 5.608,7.3008 C5.618,8.9848 6.75,10.3798 8.387,10.7308 C10.673,11.2198 12.706,9.5828 12.716,7.2458 C12.718,6.7098 12.716,6.1728 12.716,5.6158 L28.364,5.6158 Z" id="Fill-38"></path>
                    <path d="M11.4902,4.9976 C11.4902,5.7556 11.4972,6.5146 11.4892,7.2726 C11.4742,8.6336 10.4882,9.5966 9.1352,9.5806 C7.7992,9.5636 6.8422,8.5966 6.8392,7.2496 C6.8352,5.7456 6.8352,4.2416 6.8392,2.7376 C6.8432,1.3856 7.8022,0.4226 9.1392,0.4176 C10.5162,0.4126 11.4762,1.3506 11.4892,2.7226 C11.4972,3.4806 11.4912,4.2386 11.4902,4.9976" id="Fill-39"></path>
                    <path d="M29.5898,4.9648 C29.5898,4.2068 29.5808,3.4478 29.5918,2.6898 C29.6108,1.3298 30.5848,0.4058 31.9738,0.4178 C33.2788,0.4288 34.2388,1.4048 34.2428,2.7328 C34.2468,4.2498 34.2478,5.7668 34.2428,7.2828 C34.2378,8.6108 33.2468,9.5828 31.9118,9.5818 C30.5868,9.5798 29.6108,8.6348 29.5918,7.3178 C29.5798,6.5338 29.5898,5.7488 29.5898,4.9648" id="Fill-40"></path>
                </g>
            </g>
        </g>
    </g>
</svg>