<?xml version="1.0" encoding="UTF-8"?>
<svg width="47px" height="52px" viewBox="0 0 47 52" version="1.1" xmlns="http://www.w3.org/2000/svg" xmlns:xlink="http://www.w3.org/1999/xlink">
    <!-- Generator: Sketch 46.2 (44496) - http://www.bohemiancoding.com/sketch -->
    <title>Clipped</title>
    <desc>Created with Sketch.</desc>
    <defs></defs>
    <g id="Page-1" stroke="none" stroke-width="1" fill="none" fill-rule="evenodd">
        <g id="SBDRJ_01" transform="translate(-774.000000, -1261.000000)" fill-rule="nonzero" fill="#FFFFFF">
            <g id="Clipped" transform="translate(501.000000, 0.000000)">
                <g id="Group">
                    <g id="Clipped" transform="translate(273.000000, 1261.000000)">
                        <path d="M41.81,51.66 C35.447,49.983 29.081,48.316 22.722,46.622 C20.389,46.001 18.018,45.469 15.76,44.637 C4.467,40.472 -1.617,28.283 1.738,16.711 C5.28,4.495 18.02,-2.566 30.223,0.921 C41.189,4.055 48.247,14.712 46.743,25.935 C45.809,32.902 42.395,38.359 36.571,42.302 C36.475,42.366 36.387,42.443 36.281,42.524 C38.289,45.59 40.282,48.634 42.343,51.782 C42.097,51.726 41.952,51.698 41.81,51.66 M34.535,26.007 C36.37,25.991 37.896,24.473 37.901,22.658 C37.906,20.769 36.34,19.22 34.457,19.248 C32.644,19.276 31.128,20.832 31.141,22.65 C31.155,24.514 32.681,26.023 34.535,26.007 M20.253,22.61 C20.242,24.449 21.772,25.994 23.617,26.006 C25.457,26.019 26.999,24.492 27.013,22.645 C27.027,20.807 25.493,19.258 23.651,19.248 C21.813,19.236 20.263,20.772 20.253,22.61 M13.032,26.007 C14.882,25.992 16.41,24.451 16.397,22.614 C16.384,20.766 14.846,19.24 13.004,19.248 C11.165,19.256 9.628,20.806 9.637,22.643 C9.646,24.482 11.199,26.021 13.032,26.007" id="Shape"></path>
                    </g>
                </g>
            </g>
        </g>
    </g>
</svg>