<svg xmlns="http://www.w3.org/2000/svg" width="38" height="76"> <path fill="#FFF" fill-rule="evenodd" d="M37.228 34.323c-5.913.03-11.826.018-17.74.018-5.912 0-11.825.02-17.738-.01-.688 0-.884.15-.776.85.544 3.54 1.06 7.08 1.536 10.63.085.63.337.73.893.73 10.748-.01 21.498-.02 32.245.01.72 0 .866-.29.94-.87.456-3.49.913-6.98 1.405-10.47.096-.68-.047-.87-.765-.863M11.872 70.02c4.656-.056 9.313-.056 13.97-.055.667 0 1.485.28 1.958-.096.562-.45.176-1.32.178-2 .028-6.46.026-12.92.054-19.38.002-.53-.113-.7-.67-.7-5.24.02-10.478.02-15.718 0-.59 0-.717.18-.713.74.03 3.43.02 6.87.02 10.3 0 3.4.03 6.81-.02 10.22-.01.76.16.97.95.96M5.41 32.86c1.57-.06 3.14-.018 4.71-.018 1.31 0 2.62.01 3.93-.005.543-.007 1.215.216 1.58-.123.176-.165-.21-.925-.33-1.418-1.126-4.535-2.25-9.068-3.365-13.604-.066-.272-.043-.478-.464-.366-2.83.75-5.91 3.188-6.19 6.66-.22 2.665-.42 5.332-.66 7.995-.06.65.04.91.78.88m21.59-15.05c-1.2 4.99-2.45 9.96-3.72 15.04H33.5c.145 0 .293-.01.436 0 .56.06.423-.33.4-.63-.195-2.58-.448-5.15-.587-7.73-.22-4-3.42-6.31-6.03-7.08-.44-.13-.6-.12-.73.418m-9.16 12.84c1.55 1.805 1.53 1.79 3.35.27.42-.354.5-.673.44-1.183-.29-2.22-.52-4.447-.79-6.67-.2-1.593-.21-1.573-1.82-1.496-.418.02-.536.16-.57.554-.25 2.63-.528 5.26-.795 7.894-.06.242-.007.426.17.627m1.69-12.747c-1.436-.015-1.44 0-1.437 1.36.01 1.675-.19 1.523 1.54 1.524 1.69-.03 1.61.258 1.61-1.36-.003-1.82.135-1.5-1.71-1.52m-.123-.91c4.696 0 8.5-3.8 8.5-8.5 0-1.904-.634-3.66-1.695-5.08C25.23 2.04 23.895.99 22.39.557c-.207-.08-.417-.155-.632-.215-.93-.36-1.89-.45-2.88-.31-4.458.27-7.99 3.96-7.99 8.48 0 4.7 3.805 8.5 8.5 8.5m10.5 55h-21c-2.21 0-4 1.79-4 4h29c0-1.1-.45-2.1-1.17-2.83-.73-.72-1.73-1.17-2.83-1.17"/></svg>