<?xml version="1.0" encoding="UTF-8"?>
<svg width="42px" height="34px" viewBox="0 0 42 34" version="1.1" xmlns="http://www.w3.org/2000/svg" xmlns:xlink="http://www.w3.org/1999/xlink">
    <!-- Generator: Sketch 46.2 (44496) - http://www.bohemiancoding.com/sketch -->
    <title>Group 2</title>
    <desc>Created with Sketch.</desc>
    <defs></defs>
    <g id="Page-1" stroke="none" stroke-width="1" fill="none" fill-rule="evenodd">
        <g transform="translate(-69.000000, -618.000000)" id="Group-67" fill="#FFFFFF">
            <g>
                <g id="Group-2" transform="translate(69.000000, 618.000000)">
                    <path d="M3.427,31.101 L39.268,31.101 L39.268,2.966 L3.427,2.966 L3.427,31.101 Z M41.841,33.687 L0.871,33.687 L0.871,0.392 L41.841,0.392 L41.841,33.687 Z" id="Fill-41"></path>
                    <polygon id="Fill-42" points="6.851 14.665 14.492 14.665 14.492 7.01 6.851 7.01"></polygon>
                    <polygon id="Fill-43" points="17.54 14.668 25.179 14.668 25.179 7.014 17.54 7.014"></polygon>
                    <path d="M28.2031,14.6919 L28.2031,7.0169 L35.8611,7.0169 C35.8661,7.1429 35.8761,7.2539 35.8761,7.3649 C35.8771,9.6769 35.8711,11.9889 35.8841,14.3009 C35.8861,14.6149 35.7981,14.7009 35.4831,14.6989 C33.1721,14.6859 30.8601,14.6919 28.5481,14.6919 L28.2031,14.6919 Z" id="Fill-44"></path>
                    <polygon id="Fill-45" points="6.852 26.188 14.508 26.188 14.508 18.548 6.852 18.548"></polygon>
                    <polygon id="Fill-46" points="17.528 26.191 25.173 26.191 25.173 18.563 17.528 18.563"></polygon>
                    <polygon id="Fill-47" points="28.2 26.186 35.849 26.186 35.849 18.564 28.2 18.564"></polygon>
                </g>
            </g>
        </g>
    </g>
</svg>