<?xml version="1.0" encoding="UTF-8"?>
<svg width="54px" height="52px" viewBox="0 0 54 52" version="1.1" xmlns="http://www.w3.org/2000/svg" xmlns:xlink="http://www.w3.org/1999/xlink">
    <!-- Generator: Sketch 46.2 (44496) - http://www.bohemiancoding.com/sketch -->
    <title>Clipped</title>
    <desc>Created with Sketch.</desc>
    <defs></defs>
    <g id="Page-1" stroke="none" stroke-width="1" fill="none" fill-rule="evenodd">
        <g id="SBDRJ_01" transform="translate(-613.000000, -1259.000000)" fill-rule="nonzero" fill="#FFFFFF">
            <g id="Clipped" transform="translate(501.000000, 0.000000)">
                <g id="Group">
                    <g id="Clipped" transform="translate(112.000000, 1259.000000)">
                        <path d="M29.091,12.153 C28.434,11.574 27.776,10.996 27.094,10.397 C26.917,10.551 26.77,10.676 26.626,10.805 C23.611,13.497 20.597,16.191 17.583,18.883 C14.446,21.685 11.313,24.488 8.172,27.283 C7.945,27.485 7.843,27.664 7.903,27.988 C8.111,29.109 8.274,30.237 8.458,31.362 C9.257,36.262 10.056,41.164 10.856,46.064 C11.159,47.926 11.464,49.788 11.772,51.677 L23.034,51.677 C22.965,50.841 22.903,50.064 22.837,49.286 C22.56,46.022 22.279,42.761 22.01,39.497 C21.946,38.722 22.127,38.551 22.918,38.551 C25.689,38.549 28.46,38.55 31.231,38.551 C32.039,38.551 32.237,38.739 32.172,39.527 C31.935,42.401 31.684,45.274 31.441,48.147 C31.341,49.313 31.248,50.479 31.149,51.678 L42.642,51.678 C42.902,50.104 43.162,48.547 43.415,46.99 C44.44,40.69 45.457,34.39 46.497,28.094 C46.563,27.695 46.463,27.477 46.177,27.226 C40.477,22.208 34.785,17.18 29.091,12.153" id="Shape"></path>
                        <path d="M52.335,22.617 C44.561,15.541 36.787,8.463 29.014,1.384 C27.747,0.231 26.426,0.238 25.148,1.405 C20.455,5.692 15.759,9.976 11.064,14.261 C8.006,17.052 4.951,19.847 1.89,22.633 C1.18,23.279 0.792,24.056 0.927,25.02 C1.068,26.027 1.579,26.796 2.578,27.133 C3.661,27.499 4.61,27.251 5.461,26.474 C12.213,20.307 18.974,14.151 25.732,7.992 C26.176,7.588 26.622,7.187 27.084,6.768 C27.23,6.893 27.355,6.994 27.473,7.1 C34.591,13.567 41.708,20.035 48.826,26.5 C50.027,27.59 51.595,27.557 52.607,26.426 C53.662,25.249 53.548,23.722 52.335,22.617" id="Shape"></path>
                    </g>
                </g>
            </g>
        </g>
    </g>
</svg>