<?xml version="1.0" encoding="UTF-8"?>
<svg width="28px" height="28px" viewBox="0 0 28 28" version="1.1" xmlns="http://www.w3.org/2000/svg" xmlns:xlink="http://www.w3.org/1999/xlink">
    <!-- Generator: Sketch 46.2 (44496) - http://www.bohemiancoding.com/sketch -->
    <title>Fill 18</title>
    <desc>Created with Sketch.</desc>
    <defs></defs>
    <g id="Page-1" stroke="none" stroke-width="1" fill="none" fill-rule="evenodd">
        <g transform="translate(-63.000000, -581.000000)" id="Fill-18" fill="#808080">
            <path d="M82.0712791,590.731443 C82.1363787,590.666364 82.1874482,590.615871 82.2379564,590.564818 C84.5776124,588.2259 86.9172683,585.886983 89.2569242,583.547504 C89.3085549,583.496451 89.3680425,583.447642 89.4022759,583.385368 C89.5358422,583.144688 89.5431378,582.904568 89.3484004,582.691379 C89.1525405,582.477067 88.9101007,582.463602 88.6620489,582.58254 C88.5716952,582.6263 88.4998612,582.711014 88.4263436,582.784509 C86.1080134,585.100985 83.7902444,587.418023 81.4735978,589.73506 C81.4090594,589.799017 81.3506943,589.869146 81.2704422,589.956666 C81.5111984,590.197346 81.7379244,590.424561 81.9663341,590.650655 C81.9876598,590.671974 82.0134752,590.687683 82.0712791,590.731443 M80.9887182,598.173453 C82.6661545,596.126269 82.3799408,592.957594 80.3854249,591.217852 C78.4919254,589.566753 75.2925063,589.4725 73.846847,591.033275 C76.2224199,593.408098 78.5979928,595.782921 80.9887182,598.173453 M75.7425912,607.016906 C75.7992727,606.93724 75.852587,606.873283 75.8935548,606.803155 C77.2679414,604.4547 78.6378382,602.10344 80.0200816,599.758912 C80.1480359,599.540673 80.1053845,599.426224 79.9392683,599.260721 C77.5401249,596.873555 75.1482771,594.479096 72.7547456,592.08632 C72.6829116,592.014509 72.6110776,591.942137 72.5336316,591.865276 C70.0087786,593.340775 67.5091798,594.802247 65.0006017,596.267647 L66.9906281,598.257046 C67.4188261,597.925479 67.8313104,597.607378 68.2426723,597.287032 C69.2309511,596.517304 70.2192298,595.748137 71.2069473,594.977849 C71.4230106,594.80898 71.6547875,594.70519 71.932583,594.801686 C72.2064502,594.897622 72.4039937,595.078833 72.460114,595.370006 C72.5240911,595.703816 72.3686379,595.956278 72.1127292,596.156003 C71.3887772,596.720956 70.6631415,597.284788 69.9391894,597.849741 C69.3156927,598.336711 68.6938796,598.825365 68.0546693,599.3258 L69.8336832,601.104253 C69.9217921,601.016172 70.0009218,600.937067 70.0800514,600.857962 C71.1143488,599.823991 72.148085,598.789459 73.1835048,597.75661 C73.2643181,597.676384 73.3451313,597.589986 73.4410971,597.530517 C73.7699621,597.325742 74.1762732,597.405969 74.4226414,597.713411 C74.667326,598.01861 74.6387046,598.42367 74.3322877,598.731674 C73.2716137,599.797623 72.205889,600.859645 71.1418478,601.92279 C71.0632793,602.001894 70.9841497,602.080999 70.9038976,602.161787 C71.5184151,602.77611 72.109362,603.366871 72.7076046,603.965485 C73.7935327,602.579751 74.8615023,601.215336 75.9317167,599.853165 C76.2151242,599.491303 76.6096501,599.442494 76.9744321,599.717957 C77.3105928,599.969858 77.3734475,600.396799 77.1079985,600.740147 C76.3812404,601.68211 75.6477479,602.618462 74.9176226,603.55762 C74.5343208,604.0502 74.1538251,604.544464 73.7677173,605.043216 C74.4366715,605.710837 75.0837387,606.358261 75.7425912,607.016906 M82.9063494,592.023485 C83.3014364,592.82968 83.5522942,593.665048 83.6028025,594.55203 C83.7038191,596.329921 83.1577684,597.884524 82.060055,599.288773 C81.5701247,599.915439 81.2154443,600.649261 80.811378,601.341006 C79.4072478,603.745002 78.0087295,606.151804 76.6074053,608.557484 C76.3122124,609.06409 75.8121804,609.143195 75.3761255,608.756087 C75.313832,608.699984 75.2565893,608.638832 75.1976629,608.579364 C71.2675573,604.651059 67.3374516,600.722755 63.4090296,596.791646 C63.2850037,596.667098 63.1576106,596.533574 63.0784809,596.379292 C62.8904779,596.014064 63.0487372,595.625834 63.4623439,595.385153 C65.2913049,594.319204 67.1191436,593.252132 68.9497883,592.188988 C70.1221417,591.508464 71.3040355,590.84477 72.4674096,590.149659 C72.921423,589.877561 73.3092143,589.489331 73.7727681,589.237991 C75.703307,588.191678 77.6933333,588.1165 79.7102975,588.986091 C79.9179426,589.075855 80.0324281,589.055097 80.1890037,588.897448 C82.6072281,586.469889 85.0293809,584.047378 87.4571457,581.628795 C88.0587555,581.029058 88.7911256,580.857946 89.5919625,581.11714 C90.3748409,581.369601 90.8428843,581.935677 90.9713999,582.747481 C91.0853241,583.465033 90.855792,584.080479 90.3383627,584.596062 C87.9498821,586.9793 85.5653299,589.365905 83.1790941,591.751388 C83.0909852,591.839469 83.0028763,591.926989 82.9063494,592.023485"></path>
        </g>
    </g>
</svg>