<?xml version="1.0" encoding="UTF-8"?>
<svg width="47px" height="48px" viewBox="0 0 47 48" version="1.1" xmlns="http://www.w3.org/2000/svg" xmlns:xlink="http://www.w3.org/1999/xlink">
    <!-- Generator: Sketch 46.2 (44496) - http://www.bohemiancoding.com/sketch -->
    <title>Group 5</title>
    <desc>Created with Sketch.</desc>
    <defs></defs>
    <g id="Page-1" stroke="none" stroke-width="1" fill="none" fill-rule="evenodd">
        <g transform="translate(-64.000000, -987.000000)" id="Group-67" fill="#FFFFFF">
            <g>
                <g id="Group-5" transform="translate(64.000000, 987.000000)">
                    <path d="M18.7441,0.8623 C18.8261,0.8903 18.9081,0.9243 18.9921,0.9473 C20.4311,1.3303 21.3101,2.6483 21.1331,4.1583 C20.9701,5.5383 19.7341,6.6243 18.2871,6.6283 C15.0071,6.6353 11.7251,6.6303 8.4451,6.6303 C7.3061,6.6313 6.7461,7.1873 6.7461,8.3243 L6.7461,39.5803 C6.7461,40.6643 7.3201,41.2393 8.4031,41.2393 C11.7091,41.2393 15.0151,41.2323 18.3221,41.2433 C19.7261,41.2473 20.9481,42.3203 21.1291,43.6683 C21.3281,45.1573 20.4771,46.5013 19.0681,46.8913 C18.7891,46.9683 18.4881,47.0023 18.1971,47.0033 C14.8781,47.0093 11.5581,47.0143 8.2401,47.0063 C4.1651,46.9953 0.9811,43.8053 0.9791,39.7253 C0.9741,29.2053 0.9751,18.6833 0.9791,8.1623 C0.9801,4.4353 3.5691,1.4643 7.2631,0.9263 C7.3231,0.9183 7.3801,0.8833 7.4381,0.8623 L18.7441,0.8623 Z" id="Fill-50"></path>
                    <path d="M47,23.9346 C41.299,29.6366 35.562,35.3736 29.817,41.1176 L29.817,32.5866 L18.296,32.5866 L18.296,15.2826 L29.817,15.2826 L29.817,6.7516 C35.561,12.4966 41.299,18.2336 47,23.9346" id="Fill-51"></path>
                </g>
            </g>
        </g>
    </g>
</svg>