<?xml version="1.0" encoding="UTF-8"?>
<svg width="13px" height="23px" viewBox="0 0 13 23" version="1.1" xmlns="http://www.w3.org/2000/svg" xmlns:xlink="http://www.w3.org/1999/xlink">
    <!-- Generator: Sketch 46.2 (44496) - http://www.bohemiancoding.com/sketch -->
    <title>Fill 20</title>
    <desc>Created with Sketch.</desc>
    <defs></defs>
    <g id="Page-1" stroke="none" stroke-width="1" fill="none" fill-rule="evenodd">
        <g transform="translate(-329.000000, -265.000000)" id="Fill-20" fill="#808080">
            <path d="M339.418156,276.811612 C337.12166,274.531755 334.910633,272.336839 332.699606,270.141381 C331.59912,269.049063 330.499193,267.956203 329.396473,266.866049 C329.038954,266.512763 328.885892,266.115655 329.094258,265.639017 C329.365748,265.016844 330.148937,264.805305 330.713704,265.20025 C330.822077,265.275993 330.915367,265.373376 331.009774,265.466972 C334.490549,268.9203 337.970766,272.373628 341.450424,275.828579 C342.188923,276.562743 342.182778,277.045332 341.434224,277.751904 C337.995904,280.999103 334.557584,284.246843 331.118705,287.493502 C331.000836,287.604952 330.884084,287.721271 330.749456,287.812162 C330.307586,288.110805 329.725501,288.046424 329.356252,287.668251 C328.997616,287.300899 328.964658,286.710106 329.293127,286.310833 C329.404852,286.175037 329.541156,286.058718 329.670198,285.936448 C332.77111,282.999793 335.872022,280.062057 338.976286,277.128108 C339.103652,277.008002 339.263976,276.920898 339.418156,276.811612"></path>
        </g>
    </g>
</svg>