<svg xmlns="http://www.w3.org/2000/svg" width="37" height="67"> <path fill="#FEFEFE" fill-rule="evenodd" d="M14.67 58.5c0-.65-.002-1.3.002-1.95.002-.48.005-.477-.495-.52-1.478-.125-2.947-.313-4.404-.593-1.868-.36-3.706-.824-5.393-1.74-1.147-.622-2.19-1.407-2.85-2.536-.922-1.57-1.02-3.23-.05-4.84.537-.89 1.396-1.37 2.36-1.7 1.067-.36 2.066-.21 3.057.27.965.48 1.872 1.08 2.89 1.44 1.68.6 3.43.91 5.2 1.08 1.956.19 3.915.237 5.868-.05 1.022-.15 2.038-.353 2.878-1.01 1.897-1.475 2.102-4.322.464-6.14-1.04-1.15-2.387-1.812-3.78-2.404-3.084-1.31-6.303-2.29-9.352-3.684-2.475-1.14-4.703-2.62-6.332-4.88-1.06-1.474-1.647-3.11-1.833-4.894-.214-2.054-.102-4.092.502-6.08.86-2.82 2.504-5.07 5.022-6.65 1.827-1.145 3.817-1.87 5.93-2.27.31-.06.33-.19.295-.443-.22-1.537-.25-3.08-.06-4.62.27-2.195 1.28-3.626 3.7-4.17 2-.45 4.76.66 5.27 3.537.292 1.654.29 3.313.11 4.98-.037.34.076.373.356.4 3.047.28 6.016.944 8.94 1.83 1.44.43 2.24 1.4 2.526 2.85.323 1.644.262 3.24-.493 4.766-.61 1.24-1.666 1.76-3.03 1.52-1.09-.194-2.12-.596-3.144-.99-1.943-.74-3.96-1.1-6.016-1.283-1.56-.14-3.13-.208-4.696-.01-1.08.134-2.105.413-3.01 1.067-1.873 1.355-1.978 4.716.11 6.096 1.357.897 2.81 1.574 4.344 2.104 3.06 1.05 6.07 2.214 8.896 3.812 1.98 1.12 3.768 2.49 5.176 4.29 1.34 1.71 2.165 3.664 2.416 5.83.27 2.348.084 4.65-.768 6.874-.773 2.02-2.065 3.655-3.783 4.955-2.225 1.69-4.77 2.6-7.5 3.06-.28.05-.35.12-.31.42.26 1.78.28 3.57-.13 5.34-.294 1.262-.83 2.402-1.79 3.313-1.932 1.848-4.615 1.56-6.16-.64-.59-.845-.68-1.82-.794-2.79-.112-.972-.152-1.953-.153-2.934"/></svg>