<?xml version="1.0" encoding="UTF-8"?>
<svg width="51px" height="40px" viewBox="0 0 51 40" version="1.1" xmlns="http://www.w3.org/2000/svg" xmlns:xlink="http://www.w3.org/1999/xlink">
    <!-- Generator: Sketch 46.2 (44496) - http://www.bohemiancoding.com/sketch -->
    <title>inst</title>
    <desc>Created with Sketch.</desc>
    <defs></defs>
    <g id="Page-1" stroke="none" stroke-width="1" fill="none" fill-rule="evenodd">
        <g transform="translate(-62.000000, -243.000000)" id="Group-67" fill="#FFFFFF">
            <g>
                <g id="inst" transform="translate(62.000000, 243.000000)">
                    <path d="M49.8486,31.827 L49.8486,31.827 C48.8516,26.564 43.1036,17.98 34.4686,17.316 C25.0916,16.575 21.6176,21.634 21.6176,21.634 C21.6176,21.634 18.2196,5.895 13.4676,5.895 C5.6236,5.895 0.3356,30.806 0.3356,30.806 L0.3356,30.856 C0.3356,30.984 0.4626,31.138 0.6166,31.138 C0.7446,31.138 0.8466,31.035 0.8976,30.908 C2.6606,23.984 7.4116,8.578 13.5186,8.578 C18.2706,8.578 21.7956,24.725 21.7956,24.725 C21.7956,24.725 25.3476,19.538 34.8766,20.305 C42.0046,20.867 47.1916,26.82 49.4646,31.93 C49.4916,32.006 49.5676,32.057 49.6446,32.057 C49.7716,32.057 49.8486,31.981 49.8486,31.853 L49.8486,31.827 Z" id="Fill-31"></path>
                    <path d="M49.6445,26.334 C49.7715,26.334 49.8485,26.232 49.8485,26.13 L49.8485,26.079 C48.8515,20.841 43.1035,12.257 34.4685,11.567 C25.0915,10.826 21.6175,15.885 21.6175,15.885 C21.6175,15.885 18.2195,0.148 13.4675,0.148 C5.6235,0.148 0.3355,25.057 0.3355,25.057 L0.3355,25.108 C0.3355,25.261 0.4625,25.389 0.6165,25.389 C0.7445,25.389 0.8465,25.287 0.8975,25.184 C2.6605,18.236 7.4125,2.831 13.5185,2.831 C18.2705,2.831 21.7955,19.001 21.7955,19.001 C21.7955,19.001 25.3475,13.79 34.8765,14.556 C42.0045,15.119 47.1915,21.072 49.4645,26.207 C49.4915,26.284 49.5675,26.334 49.6445,26.334" id="Fill-32"></path>
                    <path d="M49.874,37.704 C48.878,32.441 43.103,23.729 34.469,23.065 C25.092,22.298 21.617,27.357 21.617,27.357 C21.617,27.357 18.22,11.619 13.468,11.619 C5.624,11.619 0.336,36.529 0.336,36.529 L0.336,36.58 C0.336,36.759 0.463,36.886 0.616,36.886 C0.744,36.886 0.847,36.784 0.897,36.657 C2.66,29.733 7.412,14.302 13.519,14.302 C18.27,14.302 21.796,30.474 21.796,30.474 C21.796,30.474 25.348,25.262 34.877,26.028 C40.14,26.463 44.355,29.835 47.115,33.642 C46.954,33.533 46.781,33.433 46.603,33.336 C47.746,34.642 48.62,36.199 49.158,37.902 C49.538,38.547 49.857,39.222 50.072,39.911 C50.076,39.805 50.078,39.7 50.078,39.595 C50.078,38.981 50.027,38.343 49.874,37.704" id="Fill-33"></path>
                </g>
            </g>
        </g>
    </g>
</svg>