<svg xmlns="http://www.w3.org/2000/svg" width="296" height="392"> <g fill="#FFF" fill-rule="evenodd"> <path d="M210.9434 134.893c-4.365-22.378-28.683-58.959-65.403-61.8-39.907-3.117-54.733 18.429-54.733 18.429s-14.48-67.066-34.711-67.066c-33.394 0-55.911 106.142-55.911 106.142v.208c0 .554.554 1.177 1.178 1.177.554 0 .97-.416 1.178-.97 7.552-29.514 27.782-95.125 53.763-95.125 20.231 0 35.265 68.798 35.265 68.798s15.103-22.101 55.703-18.845c30.276 2.425 52.378 27.782 62.077 49.537.07.277.416.555.762.555.416 0 .832-.347.832-.901v-.139z"/> <path d="M210.9434 110.437c-4.365-22.309-28.683-58.891-65.403-61.8-39.907-3.118-54.733 18.359-54.733 18.359S76.3274 0 56.0964 0C22.7024 0 .1854 106.072.1854 106.072v.208c0 .693.554 1.246 1.178 1.246.554 0 .97-.484 1.178-.9 7.552-29.584 27.782-95.194 53.763-95.194 20.231 0 35.265 68.867 35.265 68.867s15.103-22.171 55.703-18.914c30.276 2.355 52.378 27.713 62.077 49.606.07.346.416.553.762.553.416 0 .832-.483.832-.899v-.208zm33.394 53.554h-5.75v-19.259h5.75c1.178 0 2.217.069 3.187.206v-7.759c-.693 0-1.455-.068-2.148-.068h-15.588v61.7295h8.799v-26.743h3.741c1.732 0 3.395.208 5.196 1.178v-9.4915c-.97.139-2.009.207-3.187.207zm31.177 47.1125v8.314h-.277l-1.593-8.314h1.87zm-27.99-66.1655c6.305.764 8.799 4.089 8.938 9.077.069 4.572-2.01 8.798-8.938 9.769v9.4915c2.841 1.594 6.235 5.058 11.224 12.817l8.037 12.748h8.729v-2.633c-2.841-4.018-4.295-6.027-6.582-9.56-4.641-7.76-8.036-13.372-13.718-17.1815 6.651-2.634 10.393-7.968 10.393-15.035 0-10.116-6.929-16.489-18.083-17.252v7.759zm27.99 53.9025h1.94c-.693-.969-1.316-1.87-1.94-2.633v2.633zm0 20.577v-8.314h.416c9.353 0 10.184-4.642 10.184-14.203V137.111h8.869v62.3535c0 11.57-4.573 20.161-16.975 20.161-.97 0-1.732-.069-2.494-.208z"/> <path d="M77.02 72.4v11.154c-5.681-12.748-12.817-23.279-20.715-23.279-25.981 0-46.212 65.75-53.764 95.125-.208.555-.624.97-1.178.97-.623 0-1.177-.485-1.177-1.247v-.277S22.703 48.844 56.097 48.844c8.106 0 15.242 10.739 20.923 23.556zm0 122.6994h-.901c-4.78 0-8.591-1.593-15.588-6.512v5.542c5.473 3.603 10.808 5.474 15.935 5.474h.554v-4.504zM64.895 152.49c0-6.374 5.197-11.293 12.125-11.708v-4.504c-9.561.208-17.251 7.414-17.251 16.42 0 11.363 9.214 13.995 17.251 17.113v-5.127c-6.374-2.425-12.125-4.919-12.125-12.194zm61.385-14.826v4.296c-2.356-.624-5.058-.901-7.968-.901H111.8v24.665h6.651c3.048 0 5.681-.278 7.829-.832v4.919c-1.178-.069-2.425-.139-3.811-.139H111.8v25.1504h12.817c.554 0 1.109 0 1.663-.069v4.087h-19.191V137.11h12.886c2.356 0 4.434.207 6.305.554zm0-39.699v12.887c-24.942 3.949-34.711 18.29-34.711 18.29s-5.611-25.565-14.549-45.588V72.4c8.591 19.33 13.787 43.509 13.787 43.509s9.908-14.48 35.473-17.944zm-49.26 71.846c6.443 2.4944 12.125 5.3354 12.125 13.1644 0 6.512-5.197 11.709-12.125 12.124v4.504c9.769-.277 17.251-7.621 17.251-16.905 0-12.0554-9.145-14.9654-17.251-18.0144v5.127zm0-29.029c.346-.069.624-.069.97-.069 4.226 0 7.483 1.108 13.787 4.711v-5.266c-4.78-2.563-9.491-3.88-14.272-3.88h-.485v4.504zm49.26 58.0584v-4.087c11.362-.554 14.48-7.067 14.48-12.471s-2.702-11.4324-14.48-12.4714v-4.919c6.582-1.732 9.007-5.958 9.007-11.431 0-6.582-3.603-10.046-9.007-11.501v-4.296c11.224 1.94 14.134 9.284 14.134 15.381 0 6.166-2.841 10.392-8.799 13.718 9.353 2.009 14.272 7.4824 14.272 15.6584 0 9.769-7.691 16.004-19.607 16.419zm57.851-61.3844v4.019c-1.732-.278-3.603-.416-5.473-.416h-17.113v53.7634h17.32c1.801 0 3.534-.138 5.266-.416v4.158c-1.593.207-3.187.276-4.919.276h-22.448V137.11h21.547c2.079 0 4.019.138 5.82.346zm0-22.309v11.086c-10.185-8.592-22.586-14.827-36.859-16.005-7.967-.623-14.895-.277-20.992.624V97.965c5.612-.762 12.055-.97 19.261-.346 15.172 1.177 28.197 8.175 38.59 17.528zm0 83.4174v-4.158c12.54-2.009 22.724-11.154 22.724-26.4654 0-13.996-9.076-24.319-22.724-26.466v-4.019c6.305.693 11.293 2.494 15.173 5.127-4.226-5.889-9.353-11.501-15.173-16.35v-11.086c14.895 13.372 24.388 31.593 26.951 44.757.623 2.702.831 5.404.831 8.037 0 13.3024-7.205 28.5444-27.782 30.6234zm-114.3165 35.957c-1.94-1.178-3.048-1.524-4.365-1.524-2.286 0-4.156 1.663-4.156 3.672 0 5.127 9.283 2.771 9.283 9.492 0 3.048-2.494 5.334-5.681 5.334-1.524 0-3.256-.554-4.919-1.732v-1.732c2.217 1.524 3.395 2.078 4.919 2.078 2.286 0 4.019-1.662 4.019-3.81 0-5.612-9.215-3.187-9.215-9.63 0-2.772 2.494-5.058 5.612-5.058 1.455 0 2.979.416 4.503 1.178v1.732zm13.9257 16.9742c-5.75 0-10.253-4.365-10.253-9.907 0-5.681 4.503-9.977 10.253-9.977v1.385c-4.78 0-8.591 3.673-8.591 8.592 0 4.78 3.811 8.521 8.591 8.521v1.386zm0-19.884c5.75 0 10.185 4.296 10.185 9.977 0 5.542-4.435 9.907-10.185 9.907v-1.386c4.919 0 8.591-3.741 8.591-8.521 0-4.919-3.672-8.592-8.591-8.592v-1.385zm30.3462 3.256c-2.425-1.316-4.573-1.871-6.998-1.871-4.78 0-8.314 3.673-8.314 8.592 0 4.988 3.534 8.521 8.591 8.521 2.148 0 4.226-.554 6.929-2.009v1.524c-2.287 1.247-4.643 1.871-6.859 1.871-5.959 0-10.324-4.226-10.324-9.907 0-5.959 4.781-9.977 10.116-9.977 2.148 0 4.434.485 6.859 1.593v1.663zm3.3946 16.4204h1.524v-19.399h-1.524m16.7666 1.2467h-9.076v7.69h8.799v1.317h-8.799v7.829h9.284v1.316h-10.809v-19.399h10.601m10.392 0c.624 0 1.247.069 1.801.139v1.177c-.554-.069-1.108-.069-1.662-.069h-5.473v16.836h5.473c.554 0 1.108-.069 1.662-.139v1.386c-.485 0-1.039.069-1.593.069h-7.067v-19.399h6.859zm1.801.139c6.86.693 8.8 5.542 8.8 9.561 0 4.156-2.287 8.937-8.8 9.63v-1.386c3.949-.623 7.137-3.464 7.137-8.244 0-4.434-2.841-7.691-7.137-8.384v-1.177zm18.7762 12.4703h-4.642l-3.048 6.79h-1.663l8.868-19.607h.485v2.632l-.069-.138-4.088 9.076h4.157v1.247zm9.284 6.79h-1.524l-3.049-6.79h-4.711v-1.247h4.157l-4.157-8.938v-2.632h.346l8.938 19.607zm9.4914-19.3993c.624 0 1.247.069 1.801.139v1.177c-.554-.069-1.108-.069-1.732-.069h-5.403v16.836h5.542c.554 0 1.039-.069 1.593-.139v1.386c-.554 0-1.039.069-1.593.069h-6.998v-19.399h6.79zm1.801.139c6.79.693 8.73 5.542 8.73 9.561 0 4.156-2.217 8.937-8.73 9.63v-1.386c3.88-.554 7.137-3.464 7.137-8.244 0-4.434-2.841-7.691-7.137-8.384v-1.177zm23.3488 1.108h-9.146v7.69h8.869v1.317h-8.869v7.829h9.354v1.316h-10.809v-19.399h10.601M64.6875 261.1953c.416 0 .832 0 1.178.069v1.317c-.485-.07-1.039-.07-1.594-.07h-2.078v7.691h2.078c.555 0 1.109 0 1.594-.139v1.317h-3.672v7.967h3.672v1.178h-5.196v-19.33h4.018zm1.178.069c4.226.347 5.335 2.91 5.335 4.919 0 1.94-.832 3.257-2.841 4.365 2.979.624 4.504 2.287 4.504 4.85 0 3.187-2.495 5.127-6.444 5.127h-.554v-1.178h.346c4.019 0 4.989-2.148 4.989-3.949 0-1.871-.901-3.88-5.335-4.018v-1.317c2.702-.347 3.741-1.87 3.741-3.741 0-2.425-1.593-3.395-3.741-3.741v-1.317zm15.5885-.069h.624v1.316H77.99v7.622h3.256c.277 0 .554-.07.832-.07v1.317c-.416-.07-.901-.07-1.525-.07H77.99v9.215h-1.524v-19.33h4.988zm.624 0c4.295.208 5.819 2.633 5.819 4.988 0 2.286-1.247 3.811-3.741 4.781.901.416 1.663 1.524 2.633 2.91l4.365 6.651h-1.733l-3.394-5.196c-1.802-2.772-2.633-3.673-3.949-3.949v-1.317c2.771-.277 4.156-1.662 4.156-3.741s-1.247-3.534-4.156-3.811v-1.316zm18.6368 12.6787h-4.781l-3.048 6.651h-1.525l8.938-19.468h.416v2.424l-4.157 9.146h4.157v1.247zm9.353 6.651h-1.663l-3.048-6.651h-4.642v-1.247h4.157l-4.157-9.146v-2.424h.416l8.937 19.468zm12.194-16.7662c-1.94-1.039-3.049-1.386-4.365-1.386-2.425 0-4.157 1.525-4.157 3.672 0 5.127 9.284 2.772 9.284 9.492 0 2.91-2.494 5.335-5.681 5.335-1.524 0-3.256-.554-4.919-1.732v-1.733c2.217 1.525 3.395 2.079 4.919 2.079 2.286 0 4.018-1.663 4.018-3.949 0-5.404-9.214-3.049-9.214-9.492 0-2.771 2.494-5.057 5.612-5.057 1.454 0 2.979.416 4.503 1.177v1.594zm4.8502 16.7662h1.524v-19.33h-1.524m8.1746 18.1522h9.561v1.178h-11.085v-19.33h1.524m23.0714 1.3165h-9.007v7.69h8.799v1.317h-8.799v7.828h9.215v1.178h-10.739v-19.329h10.531m3.949 19.3293h1.524v-19.33h-1.524m11.6393.0003h.693v1.316h-4.157v7.622h3.187c.346 0 .624-.07.97-.07v1.317c-.485-.07-.97-.07-1.525-.07h-2.632v9.215h-1.524v-19.33h4.988zm.693 0c4.157.208 5.75 2.633 5.75 4.988 0 2.286-1.177 3.811-3.672 4.781.832.416 1.594 1.524 2.564 2.91l4.365 6.651h-1.733l-3.394-5.196c-1.732-2.772-2.633-3.673-3.88-3.949v-1.317c2.771-.277 4.088-1.732 4.088-3.741 0-2.079-1.248-3.534-4.088-3.811v-1.316zm18.5677 12.6787h-4.781l-3.048 6.651h-1.525l8.938-19.468h.416v2.494l-4.227 9.076h4.227v1.247zm9.353 6.651h-1.594l-3.048-6.651h-4.711v-1.247h4.157l-4.157-9.146v.07-2.494h.346l9.007 19.468zm18.0826-19.3297c.624 0 1.247 0 1.802.069v1.386c-.555-.139-1.178-.139-1.802-.139h-5.334v16.836h5.473c.554 0 1.108-.069 1.663-.138v1.247c-.486.069-1.04.069-1.594.069h-7.067v-19.33h6.859zm1.802.069c6.72.763 8.729 5.681 8.729 9.561 0 4.296-2.286 9.007-8.729 9.631v-1.247c3.948-.624 7.136-3.603 7.136-8.384 0-4.295-2.841-7.482-7.136-8.175v-1.386zm23.2092 1.2474h-9.007v7.69h8.799v1.317h-8.799v7.828h9.215v1.178h-10.739v-19.329h10.531M67.3896 290.5713c.693 0 1.316 0 1.94.069v1.386c-.624-.139-1.178-.139-1.801-.139h-5.335v16.836h5.404c.624 0 1.178-.069 1.732-.139v1.247c-.485.07-1.039.07-1.593.07h-7.067v-19.33h6.72zm1.94.069c6.721.762 8.729 5.681 8.729 9.63 0 4.088-2.355 8.868-8.729 9.561v-1.247c3.949-.623 7.136-3.602 7.136-8.314 0-4.434-2.841-7.621-7.136-8.244v-1.386zm23.2094 1.2474h-9.006v7.69h8.798v1.178h-8.798v7.967h9.214v1.178H82.008v-19.329h10.531m8.5914-.0004h.693v1.316h-4.157v7.483h3.256c.277 0 .624 0 .901-.07v1.456c-.485-.07-.97-.07-1.525-.07h-2.632v9.215h-1.524v-19.33h4.988zm.693 0c4.226.208 5.75 2.494 5.75 4.988 0 2.286-1.177 3.811-3.741 4.711 1.039.486 1.801 1.594 2.633 2.98l4.365 6.651h-1.733l-3.394-5.335c-1.802-2.702-2.633-3.534-3.88-3.81v-1.456c2.771-.208 4.087-1.593 4.087-3.741 0-1.94-1.247-3.395-4.087-3.672v-1.316zm27.1586 0h1.524v19.33h-1.524v-17.183h-.069l-7.344 9.146-7.344-9.146v17.183h-1.524v-19.33h1.524l7.344 9.006m20.854 3.6727h-4.711l-3.049 6.651h-1.524l8.937-19.468h.347v2.494l-.069-.07-4.088 9.146h4.157v1.247zm9.422 6.651h-1.662l-3.049-6.651h-4.711v-1.247h4.226l-4.226-9.076v-2.494h.416l9.006 19.468zm13.6487-18.0133h-7.205v18.013h-1.524v-18.013h-7.344v-1.316h16.073m9.9077 19.676c-5.75 0-10.254-4.434-10.254-9.977 0-5.612 4.504-9.907 10.254-9.907h.069v1.385c-4.919 0-8.66 3.742-8.66 8.522 0 4.85 3.741 8.522 8.66 8.591v1.386h-.069zm.069-19.884c5.681 0 10.254 4.364 10.254 9.907 0 5.474-4.573 9.977-10.254 9.977v-1.386c4.781 0 8.591-3.741 8.591-8.591s-3.81-8.522-8.591-8.522v-1.385zm15.658 18.3593h9.63v1.178h-11.154v-19.33h1.524m21.547 19.6766c-5.75 0-10.185-4.434-10.185-9.977 0-5.612 4.435-9.907 10.185-9.907v1.385c-4.78 0-8.591 3.672-8.591 8.522s3.811 8.591 8.591 8.591v1.386zm0-19.884c5.82 0 10.254 4.295 10.254 9.907 0 5.543-4.434 9.977-10.254 9.977v-1.386c4.919 0 8.591-3.741 8.591-8.591s-3.672-8.522-8.591-8.522v-1.385zm30.4843 3.3254c-2.355-1.386-4.573-1.94-6.928-1.94-4.919 0-8.522 3.603-8.522 8.522 0 4.295 2.841 8.591 8.937 8.591 2.287 0 3.811-.485 5.335-1.247v-5.197h-4.018v-1.316h5.542v7.413c-2.286 1.178-4.711 1.733-6.859 1.733-6.096 0-10.53-4.366-10.53-9.977 0-5.82 4.295-9.908 10.322-9.908 2.287 0 4.019.416 6.721 1.594v1.732zm4.5033 16.212h1.386v-19.33h-1.386m13.3717 12.679h-4.711l-3.049 6.651h-1.594l8.869-19.468h.485v2.424l-4.157 9.146h4.157v1.247zm9.353 6.651h-1.524l-3.049-6.651h-4.78v-1.247h4.087l-4.087-9.146v-2.424h.416l8.937 19.468zm-204.938 26.1195c.277 0 .485 0 .762.069v2.425c-.277-.069-.623-.069-.97-.069h-1.87v6.096h1.87c.347 0 .693-.068.97-.068v2.909c-.554-.277-1.108-.346-1.662-.346h-1.178v8.383h-2.702v-19.399h4.78zm.762.069c3.465.208 5.681 2.217 5.681 5.404 0 2.148-1.247 3.88-3.256 4.642 1.732 1.247 2.771 2.979 4.295 5.473.763 1.317 1.317 1.94 2.633 3.811h-3.256l-2.632-4.018c-1.525-2.425-2.564-3.534-3.465-4.019v-2.909c2.148-.347 2.841-1.663 2.841-3.119-.139-1.593-.901-2.632-2.841-2.84v-2.425zm24.942 2.425h-8.314v5.889h7.967v2.494h-7.967v6.028h8.522v2.494h-11.224v-19.399h11.016m22.586 18.0825c-2.563 1.109-4.642 1.524-7.344 1.524-6.028 0-10.392-4.156-10.392-9.769 0-5.819 4.503-10.046 10.462-10.046 2.286 0 3.81.347 6.858 1.664v2.771c-2.286-1.248-4.572-1.94-6.928-1.94-4.157 0-7.552 3.256-7.552 7.413 0 4.365 3.256 7.413 7.968 7.413 1.386 0 2.84-.346 4.088-.762v-4.018h-3.673v-2.495h6.513v8.245zm6.4433 1.316h2.84V336.02h-2.84m19.0528-.2075h.069v2.494h-.069c-4.227 0-7.552 3.187-7.552 7.414 0 4.226 3.325 7.413 7.552 7.413h.069v2.494h-.069c-6.443 0-10.323-4.711-10.323-9.907 0-5.335 4.088-9.908 10.323-9.908zm.069 0c6.374 0 10.392 4.503 10.392 9.908 0 5.196-3.948 9.838-10.392 9.907v-2.494c4.296-.07 7.552-3.187 7.552-7.413 0-4.227-3.256-7.345-7.552-7.414v-2.494zm34.018 19.607h-2.425l-12.887-14.896v14.896h-2.563v-19.399h2.287l12.955 15.034v-15.034h2.633m13.9952 13.6485h-4.088l-2.494 5.75h-2.84l8.383-19.468h1.039v4.573l-.208-.347-2.771 6.929h2.979v2.563zm9.492 5.75h-2.841l-2.563-5.75h-4.088v-2.563h2.979l-2.979-6.582v-4.573h.901l8.591 19.468zm7.2745-2.4937h8.868v2.494h-11.57v-19.399h2.702M65.4497 365.3965c.277 0 .485 0 .762.069v2.425c-.277-.069-.623-.069-.97-.069h-1.87v5.958h1.87c.347 0 .693 0 .97-.07v2.98c-.554-.347-1.108-.416-1.662-.416h-1.178v8.522h-2.702v-19.399h4.78zm.762.069c3.465.208 5.681 2.217 5.681 5.404 0 2.148-1.247 3.88-3.256 4.642 1.732 1.247 2.771 2.979 4.295 5.335.763 1.455 1.317 2.078 2.633 3.949h-3.256l-2.632-4.019c-1.525-2.424-2.564-3.533-3.465-4.087v-2.98c2.148-.276 2.841-1.662 2.841-3.048-.139-1.524-.901-2.563-2.841-2.771v-2.425zM80.138 384.795h2.841v-19.399h-2.841m19.0524-.277h.069v2.563h-.069c-4.365 0-7.552 3.187-7.552 7.414 0 4.226 3.187 7.413 7.552 7.413h.069v2.494h-.069c-6.443 0-10.323-4.711-10.323-9.907 0-5.474 4.018-9.977 10.323-9.977zm.069 0c6.374 0 10.392 4.573 10.392 9.977 0 5.196-3.948 9.907-10.392 9.907v-2.494c4.296-.069 7.552-3.187 7.552-7.413 0-4.227-3.256-7.344-7.552-7.414v-2.563zm26.4662.2775h7.621c.416 0 .901.069 1.317.069v2.563c-.555-.069-1.178-.138-1.871-.138h-4.226v14.411h4.434c.623 0 1.178-.07 1.663-.139v2.564c-.416 0-.901.069-1.317.069h-7.621v-19.399zm8.938.069c6.166.623 8.937 5.335 8.937 9.63 0 4.573-3.326 9.007-8.937 9.631v-2.564c4.918-.762 6.096-4.919 6.096-7.067 0-3.464-1.94-6.374-6.096-7.067v-2.563zm25.7724 2.425h-8.175v5.819h7.967v2.494h-7.967v6.098h8.522v2.494H149.42v-19.399h11.016m18.776 19.607c0 3.603-1.524 6.305-5.335 6.305-.485 0-.693 0-.9-.139l-.555-2.494h.762c2.98 0 3.187-1.525 3.187-4.573v-18.706h2.841v19.607zm13.8564-5.9585h-4.088l-2.355 5.75h-2.841l8.245-19.468h1.039v4.365l-.069-.139-2.91 6.929h2.979v2.563zm9.63 5.75h-2.84l-2.633-5.75h-4.157v-2.563h2.979l-2.979-6.79v-4.365h.9l8.73 19.468zm22.3783.0004h-2.355l-12.956-14.896v14.896h-2.633v-19.399h2.286l13.095 15.034v-15.034h2.563m17.7363 2.4942h-8.245v5.819h7.968v2.494h-7.968v6.098h8.522v2.494h-11.223v-19.399h10.946m5.681 19.3984h2.702v-19.399h-2.702m14.342.0005c.277 0 .485 0 .762.069v2.425c-.346-.069-.693-.069-1.039-.069h-1.732v5.958h1.732c.346 0 .693 0 1.039-.07v2.98c-.554-.347-1.039-.416-1.594-.416h-1.177v8.522h-2.841v-19.399h4.85zm.762.069c3.464.208 5.681 2.217 5.681 5.404 0 2.148-1.177 3.88-3.256 4.642 1.732 1.247 2.84 2.979 4.365 5.335.762 1.455 1.316 2.078 2.563 3.949h-3.325l-2.495-4.019c-1.662-2.424-2.702-3.602-3.533-4.087v-2.98c2.217-.276 2.841-1.662 2.771-3.048 0-1.524-.831-2.563-2.771-2.771v-2.425zm21.7545 19.538h-.069c-6.305 0-10.323-4.711-10.323-9.908 0-5.473 4.087-9.976 10.392-9.976v2.563c-4.295 0-7.482 3.187-7.482 7.413 0 4.227 3.187 7.414 7.482 7.414v2.494zm0-19.884c6.443 0 10.462 4.503 10.462 9.976 0 5.197-3.88 9.839-10.462 9.908v-2.494c4.365 0 7.552-3.187 7.552-7.414 0-4.226-3.187-7.413-7.552-7.413v-2.563z"/> </g></svg>