<?xml version="1.0" encoding="UTF-8"?>
<svg width="96px" height="72px" viewBox="0 0 96 72" version="1.1" xmlns="http://www.w3.org/2000/svg" xmlns:xlink="http://www.w3.org/1999/xlink">
    <!-- Generator: Sketch 46.2 (44496) - http://www.bohemiancoding.com/sketch -->
    <title>Group</title>
    <desc>Created with Sketch.</desc>
    <defs></defs>
    <g id="Page-1" stroke="none" stroke-width="1" fill="none" fill-rule="evenodd">
        <g transform="translate(-1264.000000, -85.000000)" id="Group-30" fill="#FFFFFF">
            <g transform="translate(648.000000, 41.000000)">
                <g id="Group" transform="translate(616.000000, 44.000000)">
                    <path d="M68.5918,43.797 L68.5918,43.797 C67.2138,36.521 59.2678,24.653 47.3288,23.735 C34.3658,22.711 29.5628,29.704 29.5628,29.704 C29.5628,29.704 24.8648,7.947 18.2958,7.947 C7.4518,7.947 0.1408,42.384 0.1408,42.384 L0.1408,42.455 C0.1408,42.631 0.3178,42.843 0.5288,42.843 C0.7058,42.843 0.8478,42.702 0.9178,42.526 C3.3558,32.953 9.9248,11.655 18.3658,11.655 C24.9358,11.655 29.8108,33.978 29.8108,33.978 C29.8108,33.978 34.7198,26.808 47.8938,27.867 C57.7478,28.645 64.9178,36.874 68.0618,43.938 C68.0978,44.044 68.2028,44.115 68.3098,44.115 C68.4868,44.115 68.5918,44.009 68.5918,43.832 L68.5918,43.797 Z" id="Fill-20"></path>
                    <path d="M68.5918,35.85 C67.2138,28.609 59.2678,16.742 47.3288,15.788 C34.3658,14.764 29.5628,21.757 29.5628,21.757 C29.5628,21.757 24.8648,0 18.2958,0 C7.4518,0 0.1408,34.437 0.1408,34.437 L0.1408,34.508 C0.1408,34.72 0.3178,34.896 0.5288,34.896 C0.7058,34.896 0.8478,34.755 0.9178,34.614 C3.3558,25.007 9.9248,3.708 18.3658,3.708 C24.9358,3.708 29.8108,26.066 29.8108,26.066 C29.8108,26.066 34.7198,18.861 47.8938,19.921 C57.7478,20.698 64.9178,28.927 68.0618,36.027 C68.0978,36.132 68.2028,36.203 68.3098,36.203 C68.4868,36.203 68.5918,36.062 68.5918,35.921 L68.5918,35.85 Z M92.9978,44.539 L95.8598,44.539 L95.8598,64.777 C95.8598,68.521 94.3758,71.311 90.3488,71.311 C89.9958,71.311 89.7478,71.276 89.4658,71.241 L88.9368,68.557 L89.6778,68.557 C92.7158,68.557 92.9978,67.037 92.9978,63.93 L92.9978,44.539 Z M87.4168,60.61 C85.8988,58.102 84.8038,56.23 82.9668,55.029 C85.1218,54.181 86.3218,52.451 86.3218,50.155 C86.3218,46.658 83.8148,44.539 79.7528,44.539 L74.7018,44.539 L74.7018,64.565 L77.5638,64.565 L77.5638,55.876 L78.7638,55.876 C80.2468,55.876 81.4478,56.336 84.0978,60.433 L86.7108,64.565 L90.1718,64.565 C88.7948,62.658 88.3008,61.987 87.4168,60.61 L87.4168,60.61 Z M79.4358,53.263 L77.5638,53.263 L77.5638,47.011 L79.4358,47.011 C82.2258,47.011 83.3208,48.142 83.3558,50.014 C83.3908,51.709 82.5078,53.263 79.4358,53.263 L79.4358,53.263 Z" id="Fill-21"></path>
                    <path d="M42.8076,54.146 C44.7506,53.086 45.6686,51.709 45.6686,49.696 C45.6686,47.4 44.3976,44.539 39.0286,44.539 L34.8616,44.539 L34.8616,64.565 L40.7236,64.565 C44.7866,64.565 47.4346,62.517 47.4346,59.232 C47.4346,56.583 45.8456,54.817 42.8076,54.146 L42.8076,54.146 Z M36.4146,45.811 L36.4146,53.828 L38.5346,53.828 C42.5956,53.828 44.0086,52.203 44.0086,49.802 C44.0086,46.764 41.6076,45.811 38.4986,45.811 L36.4146,45.811 Z M40.5476,63.259 C44.6796,63.259 45.7746,61.033 45.7746,59.197 C45.7746,57.254 44.7146,55.1 39.8766,55.1 L36.4146,55.1 L36.4146,63.259 L40.5476,63.259 Z M68.6266,51.921 C68.8386,52.804 68.9096,53.687 68.9096,54.535 C68.9096,59.197 66.1906,64.565 58.2786,64.565 L51.0016,64.565 L51.0016,44.539 L57.9956,44.539 C60.9626,44.539 63.1876,45.21 64.8126,46.305 C60.9976,41.042 55.1696,36.38 47.8936,35.779 C34.7196,34.72 29.8106,41.925 29.8106,41.925 C29.8106,41.925 24.9356,19.567 18.3666,19.567 C9.9246,19.567 3.3556,40.901 0.9176,50.473 C0.8476,50.649 0.7056,50.791 0.5296,50.791 C0.3176,50.791 0.1406,50.614 0.1406,50.367 L0.1406,50.296 C0.1406,50.296 7.4526,15.859 18.2956,15.859 C24.8656,15.859 29.5626,37.616 29.5626,37.616 C29.5626,37.616 34.3666,30.623 47.3286,31.682 C59.2676,32.601 67.2496,44.645 68.6266,51.921 L68.6266,51.921 Z M58.1716,63.259 L52.5566,63.259 L52.5566,45.811 L58.1016,45.811 C63.5056,45.811 67.2496,49.413 67.2496,54.535 C67.2496,60.186 62.9756,63.259 58.1716,63.259 L58.1716,63.259 Z M21.1576,49.519 C21.1576,47.365 22.9936,45.705 25.3956,45.705 C26.7726,45.705 27.8316,46.058 29.8806,47.223 L29.8806,45.528 C28.3276,44.68 26.8076,44.256 25.2536,44.256 C22.0756,44.256 19.4966,46.623 19.4966,49.59 C19.4966,56.195 29.0336,53.687 29.0336,59.409 C29.0336,61.634 27.1966,63.365 24.7946,63.365 C23.2406,63.365 22.0036,62.835 19.7446,61.246 L19.7446,63.047 C21.5096,64.212 23.2406,64.813 24.9006,64.813 C28.1506,64.813 30.6936,62.411 30.6936,59.338 C30.6936,52.31 21.1576,54.852 21.1576,49.519 L21.1576,49.519 Z" id="Fill-22"></path>
                </g>
            </g>
        </g>
    </g>
</svg>